<?xml version="1.0" encoding="UTF-8" standalone="no"?>
<svg
   width="24"
   height="24"
   version="1.1"
   id="svg8895"
   sodipodi:docname="minimize.svg"
   inkscape:version="1.2-alpha1 (b6a15bb, 2022-02-23)"
   xmlns:inkscape="http://www.inkscape.org/namespaces/inkscape"
   xmlns:sodipodi="http://sodipodi.sourceforge.net/DTD/sodipodi-0.dtd"
   xmlns="http://www.w3.org/2000/svg"
   xmlns:svg="http://www.w3.org/2000/svg">
  <defs
     id="defs8899" />
  <sodipodi:namedview
     id="namedview8897"
     pagecolor="#ffffff"
     bordercolor="#666666"
     borderopacity="1.0"
     inkscape:pageshadow="2"
     inkscape:pageopacity="0.0"
     inkscape:pagecheckerboard="0"
     inkscape:deskcolor="#d1d1d1"
     showgrid="false"
     inkscape:zoom="9.8333333"
     inkscape:cx="32.338983"
     inkscape:cy="13.271186"
     inkscape:window-width="1600"
     inkscape:window-height="838"
     inkscape:window-x="0"
     inkscape:window-y="34"
     inkscape:window-maximized="1"
     inkscape:current-layer="svg8895" />
  <g
     id="active-center"
     transform="matrix(1.0909091,0,0,-1.0909091,0,24)">
    <rect
       style="opacity:0.001"
       width="22"
       height="22"
       x="0"
       y="0"
       id="rect8866" />
    <path
       style="fill:#dfdfdf"
       d="m 10.999999,8.2499999 c 1.527778,1.8333331 3.055556,3.6666671 4.583334,5.5000001 -3.055556,0 -6.1111107,0 -9.1666662,0 1.527778,-1.833333 3.0555552,-3.666666 4.5833322,-5.5000001 z"
       id="path8868" />
  </g>
  <g
     id="hover-center"
     transform="matrix(1.0909091,0,0,-1.0909091,-1.0909091,24)">
    <rect
       style="opacity:0.001"
       width="22"
       height="22"
       x="23"
       y="0"
       id="rect8871" />
    <circle
       style="opacity:0.08;fill:#ffffff"
       cx="34"
       cy="11"
       r="11"
       id="circle8873" />
    <path
       style="fill:#dfdfdf"
       d="m 34.000002,8.25 4.583331,5.5 h -9.166666 z"
       id="path8875" />
  </g>
  <g
     id="pressed-center"
     transform="matrix(1.0909091,0,0,-1.0909091,-2.1818182,24)">
    <rect
       style="opacity:0.001"
       width="22"
       height="22"
       x="46"
       y="0"
       id="rect8878" />
    <circle
       style="opacity:0.19;fill:#ffffff"
       cx="57"
       cy="11"
       r="11"
       id="circle8880" />
    <path
       style="fill:#dfdfdf"
       d="m 57,8.25 c 1.527777,1.833334 3.055555,3.666667 4.583333,5.5 -3.055556,0 -6.111111,0 -9.166667,0 C 53.944445,11.916667 55.472222,10.083334 57,8.25 Z"
       id="path8882" />
  </g>
  <g
     id="inactive-center"
     transform="matrix(1.0909091,0,0,-1.0909091,-3.2727273,24)">
    <rect
       style="opacity:0.001"
       width="22"
       height="22"
       x="69"
       y="0"
       id="rect8885" />
    <path
       style="opacity:0.5;fill:#dfdfdf"
       d="m 80,8.25 c 1.527778,1.833333 3.055556,3.666667 4.583333,5.5 -3.055555,0 -6.111111,0 -9.166666,0 C 76.944445,11.916667 78.472222,10.083333 80,8.25 Z"
       id="path8887" />
  </g>
  <g
     id="deactivated-center"
     transform="matrix(1.0909091,0,0,-1.0909091,-4.3636364,24)">
    <rect
       style="opacity:0.001"
       width="22"
       height="22"
       x="92"
       y="0"
       id="rect8890" />
    <path
       style="opacity:0.5;fill:#dfdfdf"
       d="m 103,8.25 4.58333,5.5 h -9.166664 z"
       id="path8892" />
  </g>
</svg>
