<?xml version="1.0" encoding="UTF-8" standalone="no"?>
<!-- Created with Inkscape (http://www.inkscape.org/) -->

<svg
   width="471.02728"
   height="401.5564"
   viewBox="0 0 471.02728 401.5564"
   version="1.1"
   id="svg5"
   sodipodi:docname="tree_logo.svg"
   inkscape:version="1.1.2 (0a00cf5339, 2022-02-04, custom)"
   xmlns:inkscape="http://www.inkscape.org/namespaces/inkscape"
   xmlns:sodipodi="http://sodipodi.sourceforge.net/DTD/sodipodi-0.dtd"
   xmlns="http://www.w3.org/2000/svg"
   xmlns:svg="http://www.w3.org/2000/svg">
  <sodipodi:namedview
     id="namedview11"
     pagecolor="#ffffff"
     bordercolor="#666666"
     borderopacity="1.0"
     inkscape:pageshadow="2"
     inkscape:pageopacity="0.0"
     inkscape:pagecheckerboard="0"
     inkscape:deskcolor="#d1d1d1"
     showgrid="false"
     inkscape:zoom="0.415576"
     inkscape:cx="257.47396"
     inkscape:cy="247.84877"
     inkscape:window-width="1600"
     inkscape:window-height="834"
     inkscape:window-x="0"
     inkscape:window-y="34"
     inkscape:window-maximized="1"
     inkscape:current-layer="svg5" />
  <defs
     id="defs2" />
  <path
     id="path3069"
     style="fill:#729b79;fill-opacity:1;stroke-width:5.35954;paint-order:markers fill stroke"
     class="UnoptimicedTransforms"
     d="m 138.43303,-30.874862 c -0.0598,0.04168 -0.1295,0.131493 -0.20921,0.267002 -0.26569,0.414498 -0.37228,1.072904 -0.21287,1.460831 0.42513,1.126584 0.69128,0.839837 0.69128,-0.749069 0,-0.797111 -0.0898,-1.103811 -0.2692,-0.978764 z m -0.58155,4.566102 c -0.90339,0 -0.95658,0.637688 -0.15947,1.466683 0.37198,0.340089 0.85032,0.498996 1.06289,0.355515 0.6377,-0.398555 -0.0532,-1.822198 -0.90342,-1.822198 z m 0.90342,3.187932 c -0.31885,0 -0.58448,0.23407 -0.58448,0.515716 0,0.281646 -0.42516,0.361555 -0.90342,0.175563 -0.74398,-0.297589 -0.74392,-0.154032 0.15947,1.062888 0.6377,0.903393 1.48765,1.386452 2.33792,1.359882 1.0628,-0.0372 1.11653,-0.09521 0.26627,-0.313087 -1.38166,-0.350729 -1.96632,-1.270597 -1.22236,-2.115535 0.372,-0.488894 0.37173,-0.685427 -0.0534,-0.685427 z m -0.8566,3.857266 c -0.72736,0.0097 -0.61756,0.171039 0.06,0.697132 0.95652,0.73334 0.95628,0.749403 -0.0534,0.398674 -0.95652,-0.324159 -1.00976,-0.266033 -0.31894,0.531079 0.37198,0.488894 0.79714,0.893177 0.90342,0.893177 0.21254,0 2.33791,-2.046348 2.33791,-2.258912 0,-0.06908 -0.85007,-0.17509 -1.9129,-0.228232 -0.43841,-0.02258 -0.77362,-0.03616 -1.01607,-0.03292 z m 4.76653,1.265517 c -0.27649,-0.02541 -0.81398,0.231807 -1.41182,0.686159 -0.74398,0.605805 -1.64748,1.099464 -1.9663,1.099464 -0.31885,0 -0.58448,0.361596 -0.58448,0.797349 0,0.961846 -0.63763,1.030977 -1.4879,0.159469 -0.47826,-0.494209 -0.63788,-0.440803 -0.63788,0.234084 0,0.472951 0.47835,1.020274 1.06289,1.206265 0.58455,0.185994 0.95652,0.562714 0.74395,0.839045 -0.15944,0.276333 -0.47825,0.37722 -0.74395,0.223111 -0.26569,-0.159422 -0.58478,0.170071 -0.79735,0.722735 -0.15941,0.557976 -0.69094,0.977923 -1.22235,0.940725 -1.27537,-0.10628 -1.27513,2.0298368 0.0534,3.4593235 0.90339,0.9618442 0.95609,1.1216175 0.21213,0.834656 -0.58457,-0.2285045 -0.90341,-0.085291 -0.90341,0.4089156 0,0.5101505 -0.53089,0.7232472 -1.54057,0.6488517 -0.85024,-0.058457 -1.43471,-0.3507253 -1.32843,-0.6429996 0.10629,-0.2922743 -0.2128,-0.8184208 -0.79734,-1.1638367 -0.95653,-0.5951769 -0.95643,-0.5313335 -0.42501,1.062888 0.37197,0.9352746 0.95669,1.9605497 1.38182,2.2793935 0.42511,0.3241592 0.58418,0.839333 0.37161,1.152864 -0.15941,0.3135309 0.37237,0.8773956 1.27576,1.2706375 0.85026,0.3879264 1.59397,0.87119399 1.59397,1.07312908 0,0.19661962 0.37175,0.73881931 0.85001,1.20114382 0.74396,0.7599117 0.63786,0.8237448 -1.00948,0.7015207 -1.06281,-0.074398 -1.80705,-0.26065867 -1.70077,-0.41476773 0.10628,-0.14879357 -0.74355,-0.77017273 -1.85951,-1.37597535 -1.85991,-1.03624482 -1.96673,-1.04149612 -1.75416,-0.12216262 0.15941,0.53671998 0.58508,0.97730095 1.01022,0.97730095 0.42513,0 0.74394,0.50497802 0.74394,1.12140895 0,0.7439705 0.26569,1.0259627 0.74395,0.834656 0.6377,-0.2444457 0.6377,-0.080259 0,1.0994635 -0.37197,0.7652272 -0.58442,1.5836019 -0.42501,1.8280502 0.15944,0.2391328 -0.53186,0.3772444 -1.59469,0.3028463 -1.00968,-0.074396 -1.75365,-0.2653921 -1.64737,-0.4301295 0.10628,-0.1594219 -0.26523,-0.5684384 -0.79662,-0.9085388 -0.85026,-0.5473482 -0.95651,-0.4731083 -0.74395,0.6269064 0.21257,1.3763426 -0.85052,2.5557395 -2.60418,2.8214444 -2.23192,0.3401004 -1.59462,0.7020788 1.11556,0.606424 1.54109,-0.053139 2.92342,0.058139 3.13599,0.2494459 0.15941,0.1859939 0.63702,0.074369 1.06216,-0.2604186 0.53141,-0.4676373 0.6383,-0.4251189 0.42574,0.1806837 -0.26572,0.690829 -1.27549,1.1958209 -6.00499,3.1301432 -0.69083,0.271017 -1.06286,0.743697 -0.90342,1.051915 0.2657,0.377298 0.58414,0.356362 1.11556,-0.06876 0.47826,-0.393242 0.74395,-0.420031 0.74395,-0.07462 0,0.350729 0.53183,0.398646 1.43522,0.138256 0.79711,-0.223192 1.43499,-0.659231 1.38183,-0.956818 -0.21256,-1.03093 2.33812,-1.068045 2.9758,-0.04243 0.372,0.605802 0.37151,0.972912 0.0527,0.972912 -0.95654,0 -0.58412,0.934859 0.53181,1.216505 0.74399,0.191307 1.06289,0.7281 1.06289,1.705888 v 0.547171 l -2.28524,-0.392822 c -2.07251,-1.195667 -5.68605,-1.711327 -5.68605,-0.818563 v 1.286 c 0,0.488894 0.15953,0.73297 0.31894,0.552292 0.21256,-0.185994 0.84995,0.01066 1.43449,0.441102 0.6377,0.425124 1.54099,0.776135 2.07238,0.776135 0.53142,0 0.95682,0.239535 0.95682,0.53181 0,0.728026 1.64739,0.06901 2.55078,0.584478 0.47826,0.255074 0.3721,-0.451686 0.31894,0.361367 -0.0531,0.648316 -0.15934,0.424767 -0.58448,0.27066 -0.37197,-0.148796 -0.69128,-0.0052 -0.69128,0.31894 0,0.350723 -0.6906,0.494412 -1.75343,0.356246 -0.95652,-0.122224 -1.91324,-0.239172 -2.12578,-0.260418 -0.26572,-0.02126 -0.31888,-0.244354 -0.15947,-0.504744 0.15944,-0.260389 -0.47795,-0.792001 -1.43449,-1.17993 -0.95652,-0.387926 -2.76356,-1.673905 -4.09209,-2.853631 -1.32849,-1.174407 -2.07201,-1.732852 -1.70003,-1.23333 0.42513,0.499525 0.58415,1.158659 0.37161,1.461562 -0.15944,0.3029 -0.0533,0.553024 0.26554,0.553024 0.42513,0 0.5315,0.483489 0.31894,1.328427 -0.37201,1.445425 0.15946,1.673825 1.80683,0.786376 0.85024,-0.441068 0.95652,-0.388285 0.74395,0.27066 -0.21256,0.451696 -0.0533,1.14786 0.26554,1.546417 0.79711,0.945903 -0.53092,1.520479 -2.44398,1.047527 -1.16909,-0.292275 -1.27598,-0.180888 -1.16969,0.929752 0.15941,0.781168 0.53193,1.216482 1.01022,1.136771 0.47826,-0.07971 1.06252,0.542594 1.43449,1.55227 0.6377,1.684558 0.63775,1.684514 1.80684,0.664213 1.16911,-1.020301 1.16951,-1.020213 0.53181,0.138256 -0.85027,1.631419 -0.74441,2.162617 0.21214,0.929753 0.69082,-0.929962 0.74419,-0.940572 0.79735,-0.100949 0,0.515463 0.26535,0.929753 0.53107,0.929753 0.31883,0 0.42544,0.254854 0.21287,0.568385 -0.15941,0.313531 -0.69118,0.436129 -1.11628,0.271391 -0.42514,-0.159422 -1.27524,0.05309 -1.91291,0.48353 -1.06283,0.696142 -1.38157,0.664466 -2.97579,-0.286753 -1.64735,-1.014985 -2.71026,-0.993665 -2.71026,0.05852 0,0.276331 0.37222,0.499623 0.79735,0.499623 0.47826,0 0.69098,0.254812 0.47841,0.5896 -0.21257,0.398554 -4.9e-4,0.47268 0.79662,0.228231 0.58454,-0.196619 1.11629,-0.127681 1.11629,0.164591 0,0.286961 -0.26563,0.616454 -0.58448,0.722734 -0.42511,0.132853 -0.31947,0.531353 0.31821,1.12653 0.69082,0.738655 0.74453,1.073708 0.26627,1.700767 -0.53142,0.627059 -0.53163,0.781255 0.10607,0.781255 0.37197,0 1.00982,-0.28715 1.38182,-0.637879 0.74396,-0.74397 0.85003,0.03198 0.10607,1.142623 -0.372,0.637688 -0.90334,0.483553 -3.13526,-0.903418 -1.59422,-0.977791 -2.81663,-1.445181 -3.02919,-1.13165 -0.58455,0.94059 0.26608,3.124627 1.27575,3.135263 0.74396,0.0053 0.79693,0.07977 0.10607,0.520837 -0.69082,0.462325 -0.69082,0.52583 0,0.589599 0.42513,0.03719 1.00979,0.03227 1.22236,-0.01024 0.26572,-0.04251 0.37158,0.228587 0.21214,0.600572 -0.15941,0.441068 -1.0092,0.631854 -2.44398,0.536199 -1.2754,-0.07971 -2.70998,0.1918 -3.40081,0.670066 -0.69085,0.446378 -1.43526,0.647965 -1.59469,0.451343 -0.21254,-0.19662 -0.37161,0.02121 -0.37161,0.48353 0,0.462324 0.26517,0.961643 0.63714,1.110436 0.37198,0.148794 0.15975,0.287452 -0.53107,0.308698 -0.69083,0.02657 -1.16896,0.376788 -1.16896,0.897567 0,0.653628 0.31856,0.78153 1.4345,0.553023 0.7971,-0.16474 1.16935,-0.169858 0.79734,-0.0051 -0.47826,0.201936 -0.15987,0.796715 0.95609,1.939241 1.43481,1.471997 2.07287,3.034314 1.27576,3.034314 -0.15941,0 -1.32882,-0.717143 -2.60419,-1.593966 -2.23191,-1.530452 -3.4542,-1.977258 -3.4542,-1.254544 0,0.191307 0.42513,0.685504 0.90342,1.105315 0.53139,0.419812 0.69119,0.637984 0.37234,0.494503 -0.26569,-0.148794 -0.58448,0.207487 -0.58448,0.797349 -0.10628,0.813053 0.0531,0.930063 0.58448,0.499623 0.90339,-0.754596 1.54133,-0.07478 0.79735,0.833925 -0.47826,0.547348 -0.42529,0.712493 0.26554,0.712493 0.47828,0 0.85002,0.238804 0.85002,0.531078 0,0.292274 0.37221,0.53181 0.79734,0.53181 0.42514,0 0.79662,0.238804 0.79662,0.531078 0,0.292274 -0.31882,0.531078 -0.74395,0.531078 -0.4251,0 -0.90274,0.361597 -1.06215,0.797349 -0.31885,0.898077 -2.232,1.083905 -2.71026,0.265539 -0.6377,-1.020304 -1.16911,-0.520817 -0.90342,0.844897 0.15941,1.009673 0.47765,1.30228 1.22163,1.116289 0.63767,-0.175366 1.06344,0.106391 1.32916,0.86099 0.53139,1.780226 1.54053,2.54515 2.28451,1.795864 0.47826,-0.488894 0.53197,-0.398243 0.26627,0.393554 -0.31885,0.802424 -0.21315,0.950937 0.47768,0.690547 0.53142,-0.207247 1.32913,0.159515 2.07311,0.96194 0.63767,0.712085 1.75361,1.296774 2.39131,1.302092 0.69083,0.0053 1.22163,0.21802 1.22163,0.47841 0,0.929961 -4.72947,1.551728 -5.52658,0.722734 -0.21257,-0.217876 -0.58451,-0.419856 -0.74395,-0.441102 -0.21256,-0.02657 -0.74382,-0.186197 -1.16895,-0.356247 -1.27537,-0.488894 -4.25156,-0.924688 -4.25156,-0.621786 0,0.148794 0.63812,0.844617 1.43523,1.535446 l 1.4879,1.259664 -1.5413,0.382582 -1.54056,0.382581 1.70003,0.712493 c 1.80679,0.749283 1.80679,1.795864 0,1.795864 -0.53141,0 -1.00949,0.238804 -1.00949,0.531078 0,0.696142 0.8502,0.675165 2.23185,-0.04755 0.69082,-0.371983 1.22199,-0.39843 1.59396,-0.06364 0.31885,0.329472 -0.15888,0.637606 -1.38109,0.866111 -2.28507,0.43044 -2.71023,0.988256 -1.80684,2.555905 0.31882,0.66426 0.58424,1.419356 0.53108,1.674433 -0.10628,0.255074 0.31888,0.340105 0.90342,0.180683 0.6377,-0.154109 1.11629,-0.06381 1.11629,0.201898 0,0.265702 0.26517,0.419672 0.63714,0.345274 0.37198,-0.06908 0.6381,0.169721 0.53181,0.531078 -0.0531,0.36667 0.10616,0.664214 0.42501,0.664214 0.9034,0 0.58461,1.004598 -0.58448,1.621032 -1.38165,0.738655 -3.56078,-0.05313 -5.31444,-1.928999 -1.75363,-1.891811 -2.81644,-1.70047 -2.39131,0.441102 0.15941,0.951218 0.69143,2.003666 1.16969,2.343767 0.69082,0.536722 0.63706,0.711544 -0.42574,1.46083 -1.22224,0.871505 -1.16885,0.930426 1.70077,1.052647 0.85023,0.0372 1.54138,0.504529 1.86023,1.253813 0.2657,0.658944 0.79671,1.196023 1.11556,1.196023 0.37198,0 0.74373,0.255047 0.85002,0.563265 0.10628,0.308215 0.5849,0.39852 1.11628,0.201897 0.69083,-0.271017 0.7972,-0.526168 0.31894,-1.062888 -0.42513,-0.542035 -0.31897,-0.68536 0.42501,-0.626906 0.9034,0.06908 0.95667,0.260286 0.47841,1.610059 -0.53141,1.360402 -0.79731,1.503379 -2.28524,1.258934 -0.95655,-0.154109 -1.85957,-0.07966 -2.01898,0.15947 -0.31885,0.515463 3.24106,1.275336 3.93188,0.844897 0.2657,-0.164735 0.585,-0.02097 0.69128,0.313819 0.15941,0.457001 0.47771,0.456664 1.3811,-0.01097 0.6377,-0.345413 1.75367,-0.461622 2.55078,-0.259687 0.79711,0.201935 2.60436,0.366093 3.98602,0.376729 2.7633,0.01594 2.97602,0.595275 0.4784,1.142623 -0.85023,0.185994 -1.80719,0.685504 -2.17917,1.105315 -0.31885,0.419812 -1.06258,0.760042 -1.59397,0.760042 -0.58454,0 -1.00949,0.271292 -1.00949,0.595451 0,0.345419 0.5313,0.488947 1.32843,0.340154 0.74396,-0.138168 1.32843,-0.04786 1.32843,0.201897 0,0.255077 0.21223,0.456464 0.53108,0.456464 0.26569,0 0.53181,-0.530882 0.53181,-1.179198 v -1.17993 l 0.85001,1.216505 c 0.47826,0.669573 1.16884,1.089906 1.59397,0.930485 0.90339,-0.350729 1.00992,0.536425 0.0534,0.97218 -0.372,0.175363 -0.10635,0.212395 0.58448,0.08485 0.95652,-0.175363 1.16938,-0.03684 0.95682,0.553024 -0.21257,0.531407 -0.10619,0.653254 0.31894,0.371608 1.16908,-0.701457 2.01897,-0.642912 2.01897,0.138256 0,1.115956 1.48826,0.909213 1.86024,-0.254566 0.21257,-0.733342 0.74355,-0.983129 1.8595,-0.903418 0.9034,0.06377 1.5947,-0.04843 1.5947,-0.245057 0,-0.191307 0.63739,-0.334333 1.4345,-0.313087 0.79711,0.02657 2.01915,-0.138179 2.65685,-0.361368 1.06281,-0.3773 1.16905,-0.196876 1.4879,3.060649 0.21257,1.907753 0.26573,5.143929 0.15947,7.195159 l -0.06,1.052642 c -0.90761,0.43529 -1.09448,0.72 -0.041,0.72054 l -0.0219,0.38404 c -5.65628,1.03792 -13.41296,2.30384 -19.7706,3.17404 -10.62679,1.45454 -14.01091,1.51095 -18.37852,1.95972 -0.35065,0.0232 -0.686978,0.0433 -1.008027,0.0614 -5.592014,0.31826 -6.379695,0.0241 -6.009377,-0.13167 -1.416017,0.14648 -2.805003,0.28516 -3.98016,0.39574 -2.653528,0.0296 -6.70305,0.0605 -11.687378,-0.23262 -4.778019,-0.28099 -8.795302,-0.77189 -11.887081,-1.2582 1.408173,0.39464 3.537875,0.98205 5.719697,1.55227 2.400973,0.62749 7.748412,2.07188 -0.629101,0.94804 -9.099563,-1.41952 -14.729243,-2.9574 -16.098399,-3.10308 -1.369158,-0.14567 1.488891,1.28802 10.119746,3.10528 -2.117565,-0.41408 -11.45518,-2.02545 -11.992419,-2.11115 -2.50091,-0.39872 -2.126704,0.16012 5.577053,1.46961 -2.751874,-0.25427 2.144156,1.04659 5.263234,1.62542 0.160116,0.0297 0.246867,0.0449 0.398674,0.0731 0.633904,0.80441 -0.266794,1.68153 -3.054065,1.51716 -6.046658,-0.66963 -6.469331,-0.77365 -5.361257,-0.51279 1.108074,0.26087 3.753522,0.68202 3.825811,0.62032 1.426665,0.71465 -0.103662,0.49204 -1.015339,0.39794 -0.469473,-0.0485 -0.990631,-0.0315 0.86099,0.59765 2.025605,0.32297 4.849988,0.80762 9.00931,1.29185 8.245884,0.95999 18.065878,1.0579 16.033295,1.22894 -5.886189,-0.0311 -5.336611,-0.0125 -1.655413,0.12436 4.125526,0.15339 10.052558,0.14579 17.057413,-0.45061 5.042363,-0.42996 9.864313,-1.0833 13.107243,-1.60933 -0.5637,0.27483 -0.62832,0.56144 -0.55668,0.82149 0.0474,0.17209 0.14372,0.32699 0.188,0.45573 7.34827,-1.28802 8.17251,-1.03905 8.80156,-0.60276 0.67315,0.46687 1.20488,1.02959 9.17317,-0.61594 2.77894,-0.1866 7.84509,-1.01346 13.4196,-1.95094 6.12992,-1.00741 12.59968,-2.0116 16.31712,-2.55957 2.59371,-0.38234 5.82298,-0.94151 -0.18288,-0.51059 -3.5094,0.17489 -4.13701,0.24645 -3.15428,0.16605 1.03635,-0.0848 3.51381,-0.26843 6.43658,-0.3994 3.24438,-0.14542 5.64809,-0.17246 8.18343,-0.19166 2.09672,-0.0159 3.41436,-0.0329 2.3028,-0.24871 5.06619,-0.21014 7.32179,-0.0938 6.58142,-0.30066 -0.50974,-0.14241 -3.41119,-0.39398 -7.52726,-0.29187 -5.11881,-0.31908 -7.28095,-0.45275 -3.57856,-0.78345 2.86611,-0.25601 8.66381,-0.36873 15.0677,0.5501 3.9643,0.55952 7.83696,1.4518 11.42037,2.63271 h 7.3e-4 c 4.86517,1.23473 4.8072,0.83574 4.62755,0.28383 -0.12177,-0.37409 -0.26362,-0.78495 0.94365,-0.50255 -4.02266,-1.34617 -5.39954,-1.62414 -4.6846,-1.55227 0.77299,0.0777 3.66854,0.66608 7.33853,1.80684 -0.18154,-0.1854 0.25867,-0.18234 1.65907,0.14849 2.179,0.51435 7.1561,2.04332 13.64418,5.5178 -3.34173,-1.84528 -2.57237,-1.55147 -0.71469,-0.58886 -5.11775,-3.14806 -8.04975,-4.34892 -12.0663,-6.50608 5.16985,1.4797 9.65999,3.29456 11.05754,3.72194 0.33599,0.10274 0.49575,0.10158 0.44696,0.004 2.64254,1.29553 3.88871,1.91355 3.29985,1.14994 -0.67782,-0.87897 -5.35807,-4.35849 -13.64637,-7.67723 -0.0817,-0.046 -0.16504,-0.0916 -0.24944,-0.13752 -5.17558,-2.80452 -13.41725,-4.508585 -22.17288,-5.310051 -1.6593,-0.147995 -3.26142,-0.263086 -4.82945,-0.369414 -2.02301,-0.07193 -9.91519,-0.203026 -15.47954,0.08851 -2.93515,0.153785 -11.46868,0.749648 -1.81342,-0.398675 3.5592,-0.01892 4.00815,-0.01158 4.49295,-0.0073 -0.68333,-0.0031 -1.53847,-0.01103 -2.39717,-0.02853 -1.76194,-0.03589 -3.49771,-0.0437 -3.58221,-0.09363 -0.0845,-0.04993 1.48041,-0.216197 6.33636,-0.177027 3.83148,-0.05167 5.11118,-0.08126 2.25379,-0.352589 -2.4879,-0.236237 -6.44095,-0.398886 -11.17971,-0.356246 -4.85075,0.04364 -8.56588,0.260982 -11.18337,0.344542 -0.17125,0.0055 -0.27083,0.0018 -0.42208,0.0044 -1.51012,0.413559 -3.31177,0.932329 -5.23982,1.577142 -0.17425,0.05777 -0.32004,0.110709 -0.48792,0.167516 -0.49377,-3.062367 -0.93488,-6.989847 -0.93488,-8.634044 0,-2.279735 0.2128,-2.407497 3.18867,-1.721981 0.53141,0.127537 0.85053,-0.292655 0.95682,-1.275758 0.21256,-1.886493 0.7437,-1.848626 1.59396,0.122894 0.37198,0.871507 0.85032,1.546311 1.06289,1.509111 0.21257,-0.0372 0.74361,0.106184 1.27503,0.32406 0.47826,0.217876 1.32881,0.143433 1.86023,-0.15947 0.85027,-0.483581 0.74376,-0.595011 -0.79734,-0.908539 -1.59422,-0.324159 -2.44436,-1.285999 -1.16896,-1.285999 0.31882,0 0.42495,-0.239535 0.26554,-0.53181 -0.58455,-0.972475 0.42517,-0.547175 1.80683,0.738828 1.00968,0.935277 1.64761,1.152768 2.44472,0.833924 1.00965,-0.414498 1.00962,-0.435356 -0.15947,-0.472557 -0.63767,-0.01594 -1.16896,-0.271185 -1.16896,-0.558144 0,-0.302903 1.06258,-0.41468 2.49739,-0.276512 l 2.55078,0.250178 -2.01897,-0.574238 c -2.12564,-0.627059 -2.71042,-1.684324 -0.79735,-1.493017 0.69082,0.06377 1.64751,-0.06376 2.12577,-0.281633 0.53142,-0.223191 1.32831,-0.265878 1.75344,-0.09583 0.53139,0.19662 0.79735,-0.02125 0.79735,-0.642999 0,-0.807738 0.47806,-0.934959 3.4008,-0.892446 2.65702,0.0372 3.18848,-0.08538 2.55078,-0.553023 -0.85023,-0.637688 -0.42498,-2.072016 0.47841,-1.519352 0.2657,0.175365 1.00943,-0.239311 1.59397,-0.919512 0.58454,-0.685516 1.27582,-1.185371 1.43523,-1.116288 0.21256,0.0744 0.37161,-0.281154 0.37161,-0.796617 0,-1.153154 1.64718,-2.450405 2.65685,-2.073107 0.42513,0.164734 1.32867,-0.49888 2.12578,-1.604208 1.38165,-1.753643 1.38174,-1.859991 0.31894,-1.525204 -0.58455,0.19662 -1.75395,0.472648 -2.60419,0.610814 -0.79711,0.138167 -1.80625,0.366383 -2.28451,0.509864 -0.47829,0.138165 -1.16905,-0.08986 -1.4879,-0.514985 -0.53139,-0.648316 -0.90386,-0.65916 -2.33865,-0.07461 -1.00967,0.414498 -2.12522,0.520808 -2.76292,0.260418 -1.16909,-0.462322 -0.69098,-0.674751 1.16896,-0.525957 0.63767,0.05314 1.59411,-0.393292 2.07237,-0.983154 0.69083,-0.802424 1.11595,-0.935719 1.64737,-0.510595 0.74395,0.643003 2.49751,0.18671 2.07238,-0.54132 -0.15944,-0.260389 0.4787,-0.855666 1.43522,-1.323306 0.9034,-0.462322 1.4876,-0.850552 1.27503,-0.85587 -0.21257,-0.01063 0.0533,-0.53693 0.63788,-1.17993 0.6377,-0.63769 1.11556,-1.636132 1.11556,-2.225993 0,-0.961847 -0.0529,-0.978332 -0.69055,-0.186536 -1.06281,1.456054 -3.24148,1.987371 -5.36711,1.328427 -1.06283,-0.318844 -1.91291,-0.903193 -1.91291,-1.29112 0,-0.823681 0.63758,-0.924763 1.32843,-0.21799 0.58454,0.563289 3.4542,0.132791 3.4542,-0.520837 0,-0.244449 -0.26609,-0.589797 -0.53181,-0.765163 -0.58454,-0.350728 0.63764,-3.209391 1.4879,-3.544179 0.26569,-0.09565 0.58478,-1.227666 0.79735,-2.508357 l 0.26554,-2.327673 -2.17845,2.14699 c -1.22224,1.185036 -3.13534,2.513706 -4.19815,2.949459 -1.75365,0.71739 -1.96615,0.717054 -2.23184,-0.01097 -0.2657,-0.563292 -0.10641,-0.717112 0.42501,-0.509864 1.0628,0.40387 1.70001,-0.70156 0.79661,-1.323307 -0.53141,-0.324156 -0.26526,-0.371688 0.69128,-0.148497 1.22224,0.281646 1.4879,0.158972 1.4879,-0.691279 0,-1.471997 0.47831,-1.790789 1.80684,-1.12653 0.90339,0.478266 1.00955,0.451755 0.425,-0.122162 -0.90339,-0.967163 -0.79705,-1.732599 0.15947,-1.360614 0.42514,0.164735 0.79735,0.08029 0.79735,-0.196045 0,-0.271018 0.26515,-0.382686 0.63715,-0.239205 0.37198,0.138165 1.00985,-0.24968 1.38183,-0.866111 0.58454,-0.945906 0.58476,-1.265065 -0.10607,-2.04092 -1.0628,-1.16378 -1.11623,-3.427248 -0.0534,-4.288128 0.4251,-0.361357 0.63782,-0.866871 0.47841,-1.127261 -0.47826,-0.759911 -2.97569,0.850295 -5.79212,3.735836 -2.65705,2.747375 -3.98601,3.363731 -3.98601,1.870477 0,-0.451696 0.21269,-0.695812 0.47841,-0.531078 0.26569,0.159422 0.58453,-0.0427 0.74395,-0.457195 0.15943,-0.414499 -0.0533,-0.882252 -0.47841,-1.041674 -0.42514,-0.164738 -0.74395,-0.568094 -0.74395,-0.897566 0,-0.334788 0.37224,-0.462848 0.79735,-0.287485 1.00967,0.382614 3.24182,-1.51941 2.44471,-2.040189 -1.11596,-0.685513 -0.58488,-1.397686 0.53108,-0.781255 0.95652,0.515466 1.11574,0.483274 0.85002,-0.21287 -0.15941,-0.451694 -0.053,-0.940085 0.31894,-1.07825 0.37197,-0.154106 0.26612,-0.276274 -0.21214,-0.302846 -0.47826,-0.02125 -0.85075,-0.409295 -0.85075,-0.860991 0,-0.451696 0.31928,-0.706745 0.69128,-0.563265 0.37198,0.138166 0.79667,-0.11176 0.95609,-0.558144 0.63769,-1.594218 -0.31875,-1.812241 -2.07238,-0.478409 -1.00967,0.749283 -1.96634,1.355493 -2.12578,1.355493 -0.21256,0 -1.00899,0.441118 -1.8061,0.983153 -1.54106,1.094697 -3.93274,1.843626 -3.5076,1.094343 0.21256,-0.265702 -0.10649,-0.49391 -0.63788,-0.509864 -0.85027,-0.02126 -0.79678,-0.138277 0.21287,-0.860991 0.69085,-0.457009 1.22236,-1.147711 1.22236,-1.530324 0,-0.382614 0.63738,-0.775772 1.43449,-0.866111 0.90339,-0.100968 1.4879,-0.489526 1.4879,-0.967792 0,-0.435752 0.53153,-0.871407 1.22236,-0.967059 0.63767,-0.09034 1.06258,-0.393196 0.85001,-0.664214 -0.15941,-0.271018 9e-5,-0.493771 0.31894,-0.493771 0.31885,0 0.42498,-0.239535 0.26554,-0.53181 -0.21254,-0.292271 -0.10595,-0.531078 0.21287,-0.531078 0.85027,0 1.27552,-2.21054 0.47841,-2.715375 -0.47828,-0.329472 -0.37185,-0.456998 0.47841,-0.462316 0.69083,-0.0053 1.22163,-0.249776 1.22163,-0.542051 0,-0.945905 -1.96612,-0.558434 -2.9758,0.59472 -0.79711,0.908705 -8.02398,4.718988 -8.92738,4.718988 -0.10625,0 -0.37239,-0.355741 -0.53181,-0.791496 -0.15943,-0.510151 0.26581,-1.068646 1.22236,-1.573484 0.85024,-0.43044 1.64767,-1.392239 1.86024,-2.130897 0.21256,-0.892764 0.69051,-1.349641 1.43449,-1.349641 0.58455,0 0.95652,-0.217824 0.74395,-0.483529 -0.47826,-0.786481 0.31897,-2.168172 1.22236,-2.189418 0.74398,-0.01594 0.74392,-0.148947 -0.15947,-0.839776 -1.06283,-0.797112 -1.06234,-0.81305 -0.0527,-0.643 0.69083,0.111596 1.27491,-0.28652 1.70004,-1.136771 0.37197,-0.722714 0.58469,-1.397709 0.47841,-1.50399 -0.21254,-0.201935 -2.97595,1.472081 -3.45421,2.067255 -1.11595,1.40823 -8.55553,3.464726 -7.75842,2.130896 0.15944,-0.260389 -0.10622,-0.62745 -0.58448,-0.813442 -0.47826,-0.180678 -0.69125,-0.483342 -0.53181,-0.669334 0.21254,-0.185994 0.10669,-0.658868 -0.21214,-1.046794 -0.47828,-0.552664 -0.42528,-0.717614 0.26554,-0.717614 0.47826,0 1.22199,-0.292079 1.59397,-0.648121 0.79711,-0.754598 0.10653,-1.70091 -1.59397,-2.179176 -0.79711,-0.223192 -0.69073,-0.286785 0.31894,-0.265539 0.74396,0.01063 1.43453,-0.02094 1.59397,-0.06876 0.15941,-0.05314 0.85071,-0.19691 1.5947,-0.313819 2.71017,-0.441068 3.13516,-0.573927 3.56027,-1.004367 0.21256,-0.239133 -0.74413,-0.270697 -2.12578,-0.06876 -1.64737,0.239133 -2.49738,0.170088 -2.49738,-0.201898 0,-0.308215 0.31881,-0.563264 0.74395,-0.563264 1.00967,0 2.12507,-1.403076 1.38109,-1.844144 -0.37198,-0.228504 -0.26539,-0.611063 0.21287,-1.126529 0.42513,-0.43044 0.69049,-1.100507 0.53108,-1.493749 -0.15941,-0.387927 0.15986,-0.87651 0.69128,-1.073129 0.79711,-0.308219 0.79717,-0.435867 0.15947,-0.860991 -0.69083,-0.414498 -0.63789,-0.494305 0.10607,-0.499623 0.85026,-0.0053 0.85035,-0.159111 0.31894,-1.073129 -0.85024,-1.349776 -1.54139,-1.349776 -1.86024,0 -0.15944,0.584546 -0.63775,1.062888 -1.06289,1.062888 -0.4251,0 -1.32839,0.589814 -2.07237,1.307213 -0.69083,0.717398 -1.27503,1.078608 -1.27503,0.80759 0,-0.297579 -0.53132,-0.297243 -1.32843,0.01097 -0.9034,0.3401 -1.75419,0.308039 -2.65758,-0.09583 -1.7005,-0.770539 -1.70002,-1.498869 -0.0527,-1.498869 0.74398,0 1.64752,-0.509778 2.12578,-1.195292 0.47827,-0.653631 0.9032,-1.089476 1.00948,-0.961939 0.0531,0.127537 0.58442,-0.04248 1.16896,-0.382581 0.95655,-0.547348 0.95633,-0.616804 0.10607,-0.632759 -1.16909,-0.01594 -1.00958,-2.210117 0.31894,-3.7511965 0.47826,-0.5739204 0.63806,-1.0467947 0.37234,-1.0467947 -0.26569,0 -0.37204,-0.4150181 -0.15947,-0.9304841 0.31885,-0.8396226 0.26551,-0.8551177 -0.63788,-0.1324038 -0.53141,0.4410679 -1.48806,1.2749566 -2.12577,1.8595052 -3.61357,3.4063089 -5.73917,4.5226509 -6.43,3.3854409 -0.26572,-0.441068 -0.10614,-0.536666 0.47841,-0.302846 0.47826,0.185991 0.90342,0.137839 0.90342,-0.111922 0,-0.249761 0.47834,-0.578867 1.06288,-0.732976 0.6377,-0.159421 1.06289,-0.723118 1.06289,-1.3554926 0,-1.0309294 1.70018,-2.0673539 2.9224,-1.7431947 0.26573,0.074395 0.26594,-0.1430424 -0.10607,-0.4937711 -0.47826,-0.4835811 -0.31887,-0.9192594 0.74394,-1.8704779 0.69083,-0.6802007 1.16939,-1.488377 0.95682,-1.7965951 -0.15941,-0.3029 -0.0538,-0.5581442 0.31821,-0.5581442 0.47829,0 0.53193,-0.1647074 0.1068,-0.5632648 -0.37198,-0.4038675 -1.06326,-0.094999 -2.33864,1.0475262 -1.96623,1.8067822 -6.27052,3.5072383 -7.01448,2.7738961 -0.47829,-0.4729528 2.0724,-3.2581575 2.97579,-3.2581575 0.47826,0 2.17893,-1.8224769 3.0292,-3.24133269 0.4251,-0.73865511 0.2126,-0.72238831 -1.4879,0.11192144 -1.06283,0.53140715 -2.97591,1.12102697 -4.19815,1.31233375 -2.07248,0.3294721 -2.23175,0.2817937 -1.91291,-0.80759 0.21254,-0.82367883 0.47804,-0.99932149 0.85002,-0.59545132 0.31885,0.30821546 1.11647,0.56326477 1.75417,0.56326477 1.0628,0 1.16838,-0.20183442 0.90269,-1.79074305 -0.26572,-1.6686169 -0.15884,-1.7958636 1.16968,-1.7958636 1.59422,0 2.70972,-1.1908993 1.70004,-1.8339023 -0.47826,-0.2975898 -0.42461,-0.4087181 0.1068,-0.4140362 0.42513,-0.00531 0.63709,-0.1328388 0.47768,-0.2816324 -0.15941,-0.1541064 -0.95657,0.08489 -1.80684,0.5259576 -0.85023,0.4410679 -1.75301,0.8022719 -1.96557,0.80759 -0.79711,0.00532 -0.10656,-1.859473 0.69055,-1.8807191 0.42513,-0.015941 0.74367,-0.2979709 0.69054,-0.6327584 -0.10628,-0.3347849 0.31888,-0.7600469 0.90342,-0.9407253 0.58455,-0.1913068 1.06289,-0.8076722 1.06289,-1.408162 0,-1.0149886 -0.1063,-0.9989086 -1.64737,0.2977257 -0.90339,0.7599117 -1.96593,1.3759754 -2.33791,1.3759754 -0.37198,0 -1.38207,0.3508159 -2.17918,0.7812555 -1.75365,0.8980796 -2.55036,0.5314985 -1.11555,-0.5047437 0.53141,-0.3879264 1.00927,-1.2646993 1.11555,-1.9502129 0.2657,-1.8227256 0.90357,-3.1406356 1.38183,-2.8324166 0.26569,0.148793 0.58451,-0.186165 0.74395,-0.738828 0.21254,-0.557977 0.85068,-1.141939 1.43523,-1.301361 0.63769,-0.170051 0.95651,-0.537328 0.74394,-0.888057 -0.26569,-0.435755 -0.63808,-0.387339 -1.27575,0.165322 -0.47829,0.425127 -1.8599,1.280726 -3.13527,1.907785 -2.23191,1.126582 -2.23184,1.125917 -2.23184,0.05779 0,-0.589862 0.26565,-1.073129 0.58448,-1.073129 0.31885,0 0.42495,-0.366675 0.26554,-0.823684 -0.15944,-0.457011 -0.10598,-0.68523 0.21287,-0.509864 0.58454,0.382611 2.76335,-1.71172 2.55078,-2.455688 -0.0266,-0.0744 -0.09,-0.113693 -0.18215,-0.122163 z m 4.82506,115.164236 c 0.7721,-0.211444 1.37595,-0.375477 1.87267,-0.497428 -3.51057,0.410866 -3.23189,0.52059 -1.87267,0.497428 z m 1.87267,-0.497428 c 0.23938,-0.02802 0.32329,-0.04368 0.59984,-0.07461 0.94186,-0.273462 0.44396,-0.181651 -0.59984,0.07461 z m 18.30172,1.156521 c 1.04172,0.0047 0.46798,0.0041 0,0 z m 50.9601,15.441506 c 1.1245,0.6917 2.31871,1.44537 3.69341,2.35986 0.98483,0.65513 1.77468,1.19404 2.55883,1.72856 0.81858,0.0748 -2.08336,-1.83298 -4.62389,-3.22378 -0.59771,-0.32721 -1.13434,-0.60866 -1.62835,-0.86464 z m 6.25224,4.08842 c -0.0969,-0.009 -0.23437,-0.0395 -0.44257,-0.10826 5.07291,3.38987 3.8792,2.45087 0.44257,0.10826 z m -20.8408,-9.16585 c 0.1412,0.14419 0.6486,0.39906 1.43377,0.72054 0.91165,0.37288 2.23721,0.8754 3.9626,1.55227 -5.26049,-2.06847 -0.20638,0.2912 0.50328,0.61154 1.64076,0.74064 4.87253,2.11692 0.8727,-0.42793 -1.79583,-0.744 -3.54996,-1.39744 -5.24788,-1.96558 -0.52076,-0.17442 -1.02874,-0.33676 -1.52447,-0.49084 z m -2.65393,-0.25457 c 0.85242,0.28526 1.66647,0.55335 2.77975,0.94877 -1.35373,-0.53796 -2.20588,-0.81453 -2.77975,-0.94877 z m -88.8327,5.32541 c -0.51533,0.0903 -0.97478,0.16746 -1.55739,0.27359 1.49135,0.14186 1.65104,-10e-4 1.55739,-0.27359 z m -53.183168,-1.86243 c -0.149902,-0.0239 -0.391575,-0.0622 -0.531809,-0.0841 -0.448413,-0.07 -2.607837,-0.30016 2.664169,0.76077 -0.974981,-0.29246 -1.608971,-0.49881 -2.13236,-0.67665 z m 6.385375,-6.17982 c -1.027645,-0.288 -1.872554,-0.52832 -1.078982,-0.31089 -1.263297,-0.16986 -4.382154,-0.57351 0.455001,0.21726 0.191526,0.0313 0.424365,0.0622 0.623981,0.0936 z m 27.554619,1.09508 c 1.72289,-0.17823 3.46956,-0.36053 5.955976,-0.64374 2.065968,-0.23488 1.035658,-0.1177 3.101618,-0.35258 -0.11031,-0.10372 -1.4702,0.0128 -3.113322,0.18653 -2.165389,0.22934 -5.128628,0.57865 -5.878436,0.78126 -0.03103,0.008 -0.04293,0.0189 -0.06584,0.0285 z M 135.26778,-14.4802 c -0.15278,-0.0372 -0.3651,-0.01572 -0.60423,0.07461 -0.47826,0.175366 -1.06347,0.31894 -1.32916,0.31894 -0.26569,0 -0.47768,0.207434 -0.47768,0.457195 0,0.255074 0.58445,0.345183 1.32843,0.207018 0.74395,-0.138165 1.32843,-0.494297 1.32843,-0.781255 0,-0.14348 -0.093,-0.239313 -0.24579,-0.276512 z M 124.72595,0.79305306 c -0.53142,0 -0.4782,0.40918924 0.15947,1.64736654 0.31885,0.5739204 0.79719,0.9028337 1.06289,0.7380963 0.53141,-0.329472 -0.47838,-2.38546284 -1.22236,-2.38546284 z m 10.88637,4.09135044 c 0.66509,-0.019181 0.96413,0.1461953 0.96413,0.520837 0,0.7652245 -0.15958,0.7814777 -2.12577,0.2128702 -1.27537,-0.3719826 -1.27574,-0.3935829 0.37161,-0.6539723 0.30556,-0.046499 0.56833,-0.073341 0.79003,-0.079735 z m 7.02179,8.1307635 c 0.47826,0 0.85075,0.106547 0.85075,0.234084 0,0.563292 -1.00958,0.796861 -1.32843,0.307967 -0.15941,-0.29759 0.0525,-0.542051 0.47768,-0.542051 z m 8.34071,5.075966 c 0.74979,-0.02765 0.40116,0.259622 -1.11336,1.02485 -0.85024,0.44638 -1.96597,0.775294 -2.49739,0.738096 -0.69082,-0.05314 -0.5847,-0.143424 0.26554,-0.302846 0.6377,-0.127537 1.06286,-0.430202 0.90342,-0.669334 -0.15941,-0.239133 0.47819,-0.536677 1.32843,-0.664214 0.49155,-0.07307 0.86343,-0.117335 1.11336,-0.126552 z m -25.67098,3.653175 c 0.35206,0.09366 0.64447,0.384659 0.64447,0.809784 0,0.239133 -0.47832,0.562969 -1.06289,0.711762 -1.16909,0.302903 -1.32843,-0.0052 -0.58448,-1.147743 0.23914,-0.364015 0.65085,-0.467464 1.0029,-0.373803 z m 1.96631,1.250886 c 0.27235,-0.02657 0.53818,0.140342 0.64446,0.514985 0.15944,0.36667 -0.15962,0.664214 -0.63788,0.664214 -0.47828,0 -0.7968,-0.238804 -0.69054,-0.531078 0.13286,-0.401213 0.41161,-0.62155 0.68396,-0.648121 z m 3.51346,0.648121 c 0.31882,0 0.3723,0.238804 0.21287,0.531078 -0.21254,0.292274 -0.58433,0.53181 -0.85002,0.53181 -0.31885,0 -0.42544,-0.239536 -0.21287,-0.53181 0.15941,-0.292274 0.58429,-0.531078 0.85002,-0.531078 z m 20.61914,2.125776 c 0.31883,0 0.58448,0.238803 0.58448,0.531078 0,0.6802 -0.37221,0.6802 -0.79735,0 -0.21256,-0.292275 -0.10598,-0.531078 0.21287,-0.531078 z m -21.4955,3.209877 c 0.14614,0 0.34558,0.169764 0.55815,0.509865 0.15941,0.292271 0.0526,0.531078 -0.26627,0.531078 -0.2657,0 -0.53108,-0.238807 -0.53108,-0.531078 0,-0.340101 0.0931,-0.509865 0.2392,-0.509865 z m -2.86899,0.109727 c 0.63021,0.01769 1.20796,0.755009 0.76955,1.420598 -0.15941,0.313528 -0.53089,0.573506 -0.79662,0.573506 -0.85023,0 -1.22217,-1.131345 -0.58447,-1.742464 0.18599,-0.183334 0.40147,-0.257535 0.61154,-0.25164 z m -5.76651,7.850594 c 1.00964,0.0053 1.0627,0.106339 0.425,0.520837 -1.0628,0.669573 -1.59396,0.669573 -1.59396,0 0,-0.292274 0.53126,-0.526155 1.16896,-0.520837 z m 32.84126,0.520837 c 0.26569,0 0.53108,0.238807 0.53108,0.531078 0,0.292275 -0.26539,0.53181 -0.53108,0.53181 -0.31885,0 -0.53181,-0.239535 -0.53181,-0.53181 0,-0.292271 0.21296,-0.531078 0.53181,-0.531078 z m -38.20837,2.136017 c 0.53141,-0.0053 0.8505,0.382792 0.79735,0.919512 -0.0531,0.664259 0.26532,0.897929 1.11555,0.80759 0.69083,-0.0744 1.22236,0.122109 1.22236,0.425009 0,0.308215 0.21272,0.420032 0.47841,0.255297 0.26569,-0.17005 0.63721,-0.07463 0.79662,0.207019 0.37197,0.589861 1.96621,0.132831 2.55078,-0.722735 0.2657,-0.382614 0.42574,-0.345627 0.42574,0.106069 0,0.377298 -0.37221,0.818955 -0.79735,0.989005 -0.4251,0.164735 -0.63782,0.53126 -0.47841,0.80759 0.15944,0.308216 0.53169,0.297825 0.95682,-0.02633 0.37198,-0.329472 0.90284,-0.340402 1.3811,-0.03219 0.63767,0.398555 0.58472,0.494108 -0.26554,0.504744 -0.90339,0.01594 -0.95637,0.106683 -0.26554,0.53181 1.11596,0.717398 -0.42547,0.637576 -4.41102,-0.217991 -4.72953,-1.014985 -7.43929,-4.5172 -3.50687,-4.554399 z m 4.78263,11.217016 c 0.18599,-0.008 0.39847,0.02463 0.58448,0.10168 0.4251,0.17005 0.2656,0.297693 -0.31894,0.318939 -0.58455,0.02657 -0.90312,-0.100417 -0.69055,-0.27578 0.0797,-0.08768 0.23902,-0.136868 0.42501,-0.144839 z m 49.10059,0.151423 c 0.60012,-0.110506 1.86097,1.064598 1.86097,1.869015 0,0.313531 -0.95596,0.568385 -2.12504,0.568385 -2.17879,0 -2.86974,-0.823183 -1.22236,-1.439617 0.53141,-0.185991 1.11561,-0.574568 1.27502,-0.866842 0.0532,-0.07307 0.12568,-0.115155 0.21141,-0.130941 z m -56.31111,2.071644 c 0.66757,-0.01071 1.3652,0.1973 2.00288,0.59984 0.69085,0.472953 1.64724,0.712101 2.07237,0.542051 1.11596,-0.409183 1.85994,0.802552 0.90342,1.403041 -0.95655,0.60049 -1.38166,0.547098 -4.03868,-0.515716 -2.92274,-1.158466 -3.24207,-1.541225 -1.5947,-1.945092 0.21256,-0.05314 0.43218,-0.08055 0.65471,-0.08412 z m 3.67658,4.638522 c 0.14614,0 0.34558,0.169764 0.55814,0.509864 0.15944,0.292274 0.0533,0.53181 -0.26554,0.53181 -0.26572,0 -0.53181,-0.239536 -0.53181,-0.53181 0,-0.3401 0.0931,-0.509864 0.23921,-0.509864 z m -2.12578,7.672105 c 0.093,0.0372 0.10678,0.134301 0.0271,0.283095 -0.21257,0.292274 -0.58506,0.525958 -0.85075,0.525958 -0.74395,0 -0.58445,-0.377666 0.31894,-0.733708 0.23913,-0.09034 0.41175,-0.112544 0.50474,-0.07534 z m 51.55994,2.035799 c 0.57126,0.01528 0.70387,0.149452 0.43818,0.404527 -0.79711,0.802425 -3.87921,1.222102 -3.87921,0.525958 0,-0.308216 0.15977,-0.589901 0.37234,-0.621786 1.48793,-0.220534 2.49743,-0.323977 3.06869,-0.308699 z m -49.08889,1.010219 c 0.37201,0.116912 -0.15928,0.600713 -1.16895,1.078982 -1.32853,0.643 -1.96597,0.717192 -2.49739,0.286753 -0.47826,-0.419812 -0.85016,-0.414389 -1.32843,0.03731 -0.69082,0.733342 -0.95709,0.744101 -1.91363,0.117042 -0.58455,-0.350729 -0.15921,-0.637334 1.5413,-1.094343 1.80678,-0.483581 2.33825,-0.473426 2.71025,0.05267 0.31885,0.542025 0.5315,0.537107 1.22236,-0.01024 0.4251,-0.371986 1.11564,-0.585077 1.43449,-0.468169 z m 3.50102,1.68248 c 0.0997,0.04251 0.16606,0.145812 0.16606,0.29992 0,0.313531 -0.26612,0.563265 -0.53181,0.563265 -0.69083,0 -0.69083,-0.372225 0,-0.797349 0.13284,-0.09034 0.26611,-0.108349 0.36575,-0.06584 z m -3.12868,0.342348 c 0.69083,-0.0053 1.06283,0.228562 0.90342,0.520837 -0.42513,0.643003 -0.3719,0.643003 -1.32843,0 -0.63769,-0.414496 -0.58466,-0.515519 0.42501,-0.520837 z m 41.79498,2.136017 c 0.14614,0 0.34558,0.170495 0.55814,0.510595 0.15942,0.292275 0.0533,0.531079 -0.26553,0.531079 -0.2657,0 -0.53181,-0.238804 -0.53181,-0.531079 0,-0.3401 0.0931,-0.510595 0.2392,-0.510595 z m -45.02314,0.836119 c 0.14613,-0.0372 0.38511,-0.02246 0.67738,0.05194 0.58454,0.154109 1.06289,0.371934 1.06289,0.48353 0,0.419811 -1.54139,0.185813 -1.86024,-0.276512 -0.0797,-0.132851 -0.0262,-0.221757 0.11997,-0.258955 z m 44.5184,0.737364 c 0.42513,0 0.79735,0.238804 0.79735,0.531079 0,0.292271 -0.37222,0.531809 -0.79735,0.531809 -0.42514,0 -0.79735,-0.239538 -0.79735,-0.531809 0,-0.292275 0.37221,-0.531079 0.79735,-0.531079 z m -35.51129,0.554487 c 0.0531,-0.0033 -0.0134,0.210365 -0.1463,0.640805 -0.21256,0.520779 -0.0533,0.930484 0.26554,0.930484 0.31882,0 0.58448,0.227874 0.58448,0.498892 0,0.462322 -6.05755,0.574353 -8.13003,0.149228 -1.11596,-0.23382 -1.22276,-1.17993 -0.1068,-1.17993 0.42513,0 0.79734,-0.218172 0.79734,-0.494502 0,-0.728027 3.87946,-0.4138 4.67657,0.383313 0.63769,0.563289 0.90332,0.514897 1.48789,-0.266271 0.34542,-0.438405 0.51818,-0.658699 0.57131,-0.662019 z m 13.69685,0.762236 c 0.093,0.0372 0.10604,0.13357 0.0263,0.282364 -0.21256,0.292274 -0.5843,0.526689 -0.85002,0.526689 -0.74395,0 -0.58445,-0.377666 0.31894,-0.733707 0.23913,-0.09034 0.41175,-0.112544 0.50475,-0.07535 z M 129.1633,76.2698 c 0.27899,0 0.50475,0.171497 0.50475,0.514253 0,0.292275 -0.37176,0.531079 -0.85002,0.531079 -0.42513,0 -0.69097,-0.238804 -0.47841,-0.531079 0.21257,-0.342756 0.5447,-0.514253 0.82368,-0.514253 z m -12.31355,2.91581 c 0.0415,0.01511 0.0644,0.05327 0.0644,0.117042 0,0.797109 -1.54083,2.603905 -1.59396,1.82805 0,-0.382614 0.37148,-1.05707 0.79662,-1.498138 0.31885,-0.326817 0.60843,-0.492291 0.73297,-0.446954 z m 12.98069,6.699193 c 0.36866,-0.07822 0.40849,0.101721 0.20922,0.607887 -0.15941,0.467637 -0.053,0.967687 0.31894,1.111167 0.42513,0.164735 0.37194,0.286281 -0.15947,0.339422 -2.65703,0.276331 -4.46351,0.207673 -5.47318,-0.212138 -1.00968,-0.414496 -1.06265,-0.510214 -0.26554,-0.701521 0.53139,-0.122224 0.95609,-0.478353 0.95609,-0.781256 0,-0.377298 0.21274,-0.382915 0.63788,-0.03219 0.69082,0.557979 1.59423,0.51049 3.29473,-0.169711 0.19928,-0.08104 0.35845,-0.135592 0.48133,-0.161664 z m -13.9258,2.126507 c -0.18599,0.008 -0.34529,0.05716 -0.42501,0.14484 -0.21254,0.175363 0.10598,0.303081 0.69055,0.276511 0.58454,-0.02126 0.74407,-0.148889 0.31894,-0.318939 -0.18599,-0.07706 -0.39849,-0.110383 -0.58448,-0.102412 z m 27.38637,12.30624 c -0.25261,0.0539 -0.5138,0.10856 -0.78199,0.16386 -0.12281,0.0251 -0.31672,0.0591 -0.44476,0.0849 -0.004,-0.0211 -0.008,-0.046 -0.0124,-0.0673 0.16809,-0.0241 0.2719,-0.0332 0.45134,-0.06 0.25124,-0.038 0.51339,-0.0785 0.78784,-0.12143 z m -82.865757,7.25002 c 1.529149,0.0626 2.631301,0.40964 3.264741,0.83539 -0.89586,-0.2321 -1.750607,-0.45394 -3.264741,-0.83539 z"
     transform="matrix(1.8658279,0,0,1.8658279,-25.164795,118.11549)" />
</svg>
