<?xml version="1.0" encoding="UTF-8" standalone="no"?>
<svg
   width="182"
   height="46"
   version="1.1"
   id="svg336"
   sodipodi:docname="button.svg"
   inkscape:version="1.2-alpha1 (b6a15bb, 2022-02-23)"
   xmlns:inkscape="http://www.inkscape.org/namespaces/inkscape"
   xmlns:sodipodi="http://sodipodi.sourceforge.net/DTD/sodipodi-0.dtd"
   xmlns:xlink="http://www.w3.org/1999/xlink"
   xmlns="http://www.w3.org/2000/svg"
   xmlns:svg="http://www.w3.org/2000/svg">
  <sodipodi:namedview
     id="namedview338"
     pagecolor="#ffffff"
     bordercolor="#666666"
     borderopacity="1.0"
     inkscape:pageshadow="2"
     inkscape:pageopacity="0.0"
     inkscape:pagecheckerboard="0"
     inkscape:deskcolor="#d1d1d1"
     showgrid="false"
     inkscape:zoom="5.1304348"
     inkscape:cx="116.55932"
     inkscape:cy="21.927966"
     inkscape:window-width="1600"
     inkscape:window-height="834"
     inkscape:window-x="0"
     inkscape:window-y="34"
     inkscape:window-maximized="1"
     inkscape:current-layer="svg336" />
  <defs
     id="materia">
    <linearGradient
       id="linearGradient4311">
      <stop
         style="stop-color:#000000"
         offset="0"
         id="stop2" />
      <stop
         style="stop-color:#000000;stop-opacity:0"
         offset="1"
         id="stop4" />
    </linearGradient>
    <linearGradient
       id="linearGradient5878">
      <stop
         style="stop-color:#000000"
         offset="0"
         id="stop7" />
      <stop
         style="stop-color:#000000;stop-opacity:0"
         offset="1"
         id="stop9" />
    </linearGradient>
    <linearGradient
       id="linearGradient2643">
      <stop
         style="stop-opacity:.353"
         offset="0"
         id="stop12" />
      <stop
         style="stop-opacity:.137"
         offset=".45"
         id="stop14" />
      <stop
         style="stop-opacity:0"
         offset="1"
         id="stop16" />
    </linearGradient>
    <radialGradient
       id="radialGradient1933"
       cx="52"
       cy="20.518"
       r="3"
       fx="52"
       fy="20.518"
       gradientTransform="matrix(1.7927802e-6,-2.3333312,0.9999998,7.6805377e-7,29.482354,131.33419)"
       gradientUnits="userSpaceOnUse"
       xlink:href="#linearGradient2643" />
    <radialGradient
       id="radialGradient1562"
       cx="53.802"
       cy="23.591"
       r="3"
       fx="53.802"
       fy="23.591"
       gradientTransform="matrix(-3.9810276e-7,-1.3333327,1.6666672,-4.9297874e-7,12.681798,77.735995)"
       gradientUnits="userSpaceOnUse"
       xlink:href="#linearGradient2643" />
    <radialGradient
       id="radialGradient1987"
       cx="52.776"
       cy="51.595"
       r="3"
       fx="52.776"
       fy="51.595"
       gradientTransform="matrix(-1.6666667,-2.18358e-7,2.1835785e-7,-1.6666658,139.96033,1133.3541)"
       gradientUnits="userSpaceOnUse"
       xlink:href="#linearGradient2643" />
    <radialGradient
       id="radialGradient2009"
       cx="53.027"
       cy="52.74"
       r="3"
       fx="53.027"
       fy="52.74"
       gradientTransform="matrix(-0.92011123,-0.00184061,0.00233381,-1.1666633,98.427929,1106.9957)"
       gradientUnits="userSpaceOnUse"
       xlink:href="#linearGradient2643" />
    <linearGradient
       id="linearGradient7337"
       x1="53"
       x2="53"
       y1="53"
       y2="59"
       gradientTransform="matrix(1.0000001,0,0,0.83333333,-1.0000032,1003.1955)"
       gradientUnits="userSpaceOnUse"
       xlink:href="#linearGradient2643" />
    <linearGradient
       id="linearGradient7463"
       x1="53"
       x2="53"
       y1="21.514"
       y2="16.5"
       gradientTransform="translate(-0.99999724,991.36216)"
       gradientUnits="userSpaceOnUse"
       xlink:href="#linearGradient2643" />
    <linearGradient
       id="linearGradient2050"
       x1="50.181"
       x2="47"
       y1="35"
       y2="35"
       gradientTransform="matrix(0.9,0,0,1.1034483,4.6999951,987.98284)"
       gradientUnits="userSpaceOnUse"
       xlink:href="#linearGradient2643" />
    <radialGradient
       id="radialGradient5890"
       cx="5"
       cy="1050.474"
       r="2.5"
       fx="5"
       fy="1050.474"
       gradientTransform="matrix(-2.0000001,-1.4532645e-6,1.0048499e-6,-1.3819582,16.998931,1490.7106)"
       gradientUnits="userSpaceOnUse"
       xlink:href="#linearGradient4311" />
    <radialGradient
       id="radialGradient5892"
       cx="31.583"
       cy="1048.39"
       r="2.5"
       fx="31.583"
       fy="1048.39"
       gradientTransform="matrix(0.00152309,1.3135979,-1.999979,0.00231894,2131.7097,-4.9192)"
       gradientUnits="userSpaceOnUse"
       xlink:href="#linearGradient4311" />
    <radialGradient
       id="radialGradient4309"
       cx="20"
       cy="1033.362"
       r="16"
       fx="20"
       fy="1033.362"
       gradientTransform="matrix(0,0.12499996,-1.2499967,0,1311.6996,1045.8622)"
       gradientUnits="userSpaceOnUse"
       xlink:href="#linearGradient5878" />
    <radialGradient
       id="radialGradient4525"
       cx="53.027"
       cy="52.74"
       r="3"
       fx="53.027"
       fy="52.74"
       gradientTransform="matrix(0.92011123,-0.00184061,-0.00233381,-1.1666633,37.572073,1106.9957)"
       gradientUnits="userSpaceOnUse"
       xlink:href="#linearGradient2643" />
    <radialGradient
       id="radialGradient4527"
       cx="52.776"
       cy="51.595"
       r="3"
       fx="52.776"
       fy="51.595"
       gradientTransform="matrix(1.6666667,-2.18358e-7,-2.1835785e-7,-1.6666658,-3.96033,1133.3541)"
       gradientUnits="userSpaceOnUse"
       xlink:href="#linearGradient2643" />
    <radialGradient
       id="radialGradient4529"
       cx="53.802"
       cy="23.591"
       r="3"
       fx="53.802"
       fy="23.591"
       gradientTransform="matrix(3.9810276e-7,-1.3333327,-1.6666672,-4.9297874e-7,123.31821,77.735995)"
       gradientUnits="userSpaceOnUse"
       xlink:href="#linearGradient2643" />
    <linearGradient
       id="linearGradient4531"
       x1="50.181"
       x2="47"
       y1="35"
       y2="35"
       gradientTransform="matrix(-0.9,0,0,1.1034483,131.3,987.98284)"
       gradientUnits="userSpaceOnUse"
       xlink:href="#linearGradient2643" />
    <radialGradient
       id="radialGradient4533"
       cx="52"
       cy="20.518"
       r="3"
       fx="52"
       fy="20.518"
       gradientTransform="matrix(-1.7927802e-6,-2.3333312,-0.9999998,7.6805377e-7,106.51765,131.33419)"
       gradientUnits="userSpaceOnUse"
       xlink:href="#linearGradient2643" />
    <linearGradient
       id="linearGradient4805"
       x1="50.181"
       x2="47"
       y1="35"
       y2="35"
       gradientTransform="matrix(0.9,0,0,1.1034483,4.6999951,987.98284)"
       gradientUnits="userSpaceOnUse"
       xlink:href="#linearGradient2643" />
    <linearGradient
       id="linearGradient4807"
       x1="53"
       x2="53"
       y1="21.514"
       y2="16.5"
       gradientTransform="translate(-0.99999724,991.36216)"
       gradientUnits="userSpaceOnUse"
       xlink:href="#linearGradient2643" />
    <linearGradient
       id="linearGradient4809"
       x1="50.181"
       x2="47"
       y1="35"
       y2="35"
       gradientTransform="matrix(-0.9,0,0,1.1034483,131.3,987.98284)"
       gradientUnits="userSpaceOnUse"
       xlink:href="#linearGradient2643" />
    <linearGradient
       id="linearGradient4811"
       x1="53"
       x2="53"
       y1="53"
       y2="59"
       gradientTransform="matrix(1.0000001,0,0,0.83333333,-1.0000032,1003.1955)"
       gradientUnits="userSpaceOnUse"
       xlink:href="#linearGradient2643" />
    <radialGradient
       id="radialGradient4813"
       cx="53.027"
       cy="52.74"
       r="3"
       fx="53.027"
       fy="52.74"
       gradientTransform="matrix(-0.92011123,-0.00184061,0.00233381,-1.1666633,98.427929,1106.9957)"
       gradientUnits="userSpaceOnUse"
       xlink:href="#linearGradient2643" />
    <radialGradient
       id="radialGradient4815"
       cx="52.776"
       cy="51.595"
       r="3"
       fx="52.776"
       fy="51.595"
       gradientTransform="matrix(-1.6666667,-2.18358e-7,2.1835785e-7,-1.6666658,139.96033,1133.3541)"
       gradientUnits="userSpaceOnUse"
       xlink:href="#linearGradient2643" />
    <radialGradient
       id="radialGradient4817"
       cx="52"
       cy="20.518"
       r="3"
       fx="52"
       fy="20.518"
       gradientTransform="matrix(1.7927802e-6,-2.3333312,0.9999998,7.6805377e-7,29.482354,131.33419)"
       gradientUnits="userSpaceOnUse"
       xlink:href="#linearGradient2643" />
    <radialGradient
       id="radialGradient4819"
       cx="53.802"
       cy="23.591"
       r="3"
       fx="53.802"
       fy="23.591"
       gradientTransform="matrix(-3.9810276e-7,-1.3333327,1.6666672,-4.9297874e-7,12.681798,77.735995)"
       gradientUnits="userSpaceOnUse"
       xlink:href="#linearGradient2643" />
    <radialGradient
       id="radialGradient4821"
       cx="53.027"
       cy="52.74"
       r="3"
       fx="53.027"
       fy="52.74"
       gradientTransform="matrix(0.92011123,-0.00184061,-0.00233381,-1.1666633,37.572073,1106.9957)"
       gradientUnits="userSpaceOnUse"
       xlink:href="#linearGradient2643" />
    <radialGradient
       id="radialGradient4823"
       cx="52.776"
       cy="51.595"
       r="3"
       fx="52.776"
       fy="51.595"
       gradientTransform="matrix(1.6666667,-2.18358e-7,-2.1835785e-7,-1.6666658,-3.96033,1133.3541)"
       gradientUnits="userSpaceOnUse"
       xlink:href="#linearGradient2643" />
    <radialGradient
       id="radialGradient4825"
       cx="52"
       cy="20.518"
       r="3"
       fx="52"
       fy="20.518"
       gradientTransform="matrix(-1.7927802e-6,-2.3333312,-0.9999998,7.6805377e-7,106.51765,131.33419)"
       gradientUnits="userSpaceOnUse"
       xlink:href="#linearGradient2643" />
    <radialGradient
       id="radialGradient4827"
       cx="53.802"
       cy="23.591"
       r="3"
       fx="53.802"
       fy="23.591"
       gradientTransform="matrix(3.9810276e-7,-1.3333327,-1.6666672,-4.9297874e-7,123.31821,77.735995)"
       gradientUnits="userSpaceOnUse"
       xlink:href="#linearGradient2643" />
    <style
       id="current-color-scheme"
       type="text/css">.ColorScheme-Background { color:#181818; }
.ColorScheme-ButtonBackground { color:#343434; }
.ColorScheme-Highlight { color:#4285f4; }
.ColorScheme-Text { color:#dfdfdf; }
.ColorScheme-ViewBackground { color:#242424; }
.ColorScheme-NegativeText { color:#f44336; }
.ColorScheme-PositiveText { color:#4caf50; }
.ColorScheme-NeutralText { color:#ff9800; }
</style>
  </defs>
  <g
     id="focus-left"
     transform="translate(45.000006,-1006.3622)">
    <path
       style="fill:url(#linearGradient4805)"
       d="m 46.999995,1013.3622 v 32 h 2 v -32 z"
       id="path48" />
    <path
       style="fill:currentColor;opacity:0.08"
       class="ColorScheme-Text"
       d="m 51.999992,1045.362 v -31.9998 h -2.999996 v 32 z"
       id="path50" />
  </g>
  <g
     id="focus-top"
     transform="translate(45.000006,-1006.3622)">
    <path
       style="fill:url(#linearGradient4807)"
       d="M 84.000008,1009.3622 H 52.000006 v 1 h 32.000002 z"
       id="path53" />
    <path
       style="fill:currentColor;opacity:0.08"
       class="ColorScheme-Text"
       d="m 52.000106,1013.3622 h 31.999802 v -3 H 51.999906 Z"
       id="path55" />
    <path
       style="opacity:0.05;fill:#ffffff"
       d="m 52.000003,1010.3622 v 1 h 32.000002 v -1 z"
       id="path57" />
  </g>
  <g
     id="focus-right"
     transform="translate(45.000006,-1006.3622)">
    <path
       style="fill:url(#linearGradient4809)"
       d="m 89.000005,1013.3622 v 32 h -2 v -32 z"
       id="path60" />
    <path
       style="fill:currentColor;opacity:0.08"
       class="ColorScheme-Text"
       d="m 84.000008,1045.362 v -31.9998 h 2.999996 v 32 z"
       id="path62" />
  </g>
  <g
     id="focus-bottom"
     transform="translate(45.000006,-1006.3622)">
    <path
       style="fill:url(#linearGradient4811)"
       d="m 52,1052.3622 h 32.000002 v -5 H 52 Z"
       id="path65" />
    <path
       style="fill:currentColor;opacity:0.08"
       class="ColorScheme-Text"
       d="M 83.999801,1045.3622 H 51.999996 v 2 h 32.000002 z"
       id="path67" />
  </g>
  <g
     id="focus-bottomleft"
     transform="translate(45.000006,-1006.3622)">
    <path
       style="opacity:0.6;fill:url(#radialGradient4813)"
       d="m 46.999992,1045.3622 v 7 h 5 v -5 h -1 c -1.5,0 -2,-0.5 -2,-2 z"
       id="path70" />
    <path
       style="fill:url(#radialGradient4815)"
       d="m 46.999992,1045.3622 v 7 h 5 v -5 h -1 c -1.5,0 -2,-0.5 -2,-2 z"
       id="path72" />
    <path
       style="fill:currentColor;opacity:0.08"
       class="ColorScheme-Text"
       d="m 51.999992,1047.3622 h -0.999996 c -1.500001,0 -2.000001,-0.5 -2.000001,-2 v 0 h 2.999997 z"
       id="path74" />
  </g>
  <g
     id="focus-topleft"
     transform="translate(45.000006,-1006.3622)">
    <path
       style="fill:url(#radialGradient4817)"
       transform="translate(-7.629395e-6,1006.3622)"
       d="m 47,3 v 4 h 2 V 6 c 0,-1.4999999 0.5,-2 2,-2 h 1 V 3 Z"
       id="path77" />
    <path
       style="fill:url(#radialGradient4819)"
       transform="translate(-7.629395e-6,1006.3622)"
       d="m 47,3 v 4 h 2 V 6 c 0,-1.4999999 0.5,-2 2,-2 h 1 V 3 Z"
       id="path79" />
    <path
       style="fill:currentColor;opacity:0.08"
       class="ColorScheme-Text"
       d="m 51.999992,1010.3622 h -0.999996 c -1.500001,0 -2.000001,0.5 -2.000001,2 v 1 h 2.999997 z"
       id="path81" />
    <path
       style="opacity:0.05;fill:#ffffff"
       d="m 51.000003,1010.3622 c -1.5,0 -2,0.5 -2,2 v 1 c 0,-1.5 0.5,-2 2,-2 h 0.999996 v -1 z"
       id="path83" />
  </g>
  <g
     id="focus-bottomright"
     transform="translate(45.000006,-1006.3622)">
    <path
       style="opacity:0.6;fill:url(#radialGradient4821)"
       d="m 89.00001,1045.3622 v 7 h -5 v -5 h 1 c 1.5,0 2,-0.5 2,-2 z"
       id="path86" />
    <path
       style="fill:url(#radialGradient4823)"
       d="m 89.00001,1045.3622 v 7 h -5 v -5 h 1 c 1.5,0 2,-0.5 2,-2 z"
       id="path88" />
    <path
       style="fill:currentColor;opacity:0.08"
       class="ColorScheme-Text"
       d="m 84.000008,1047.3622 h 0.999996 c 1.500001,0 2.000001,-0.5 2.000001,-2 v 0 h -2.999997 z"
       id="path90" />
  </g>
  <g
     id="focus-topright"
     transform="translate(45.000006,-1006.3622)">
    <path
       style="fill:url(#radialGradient4825)"
       transform="translate(-7.629395e-6,1006.3622)"
       d="m 84,3 v 1 h 1 c 1.5,0 2,0.5000001 2,2 v 1 h 2 V 3 Z"
       id="path93" />
    <path
       style="fill:url(#radialGradient4827)"
       transform="translate(-7.629395e-6,1006.3622)"
       d="m 84,3 v 1 h 1 c 1.5,0 2,0.5000001 2,2 v 1 h 2 V 3 Z"
       id="path95" />
    <path
       style="fill:currentColor;opacity:0.08"
       class="ColorScheme-Text"
       d="m 84.000008,1010.3622 h 0.999996 c 1.500001,0 2.000001,0.5 2.000001,2 v 1 h -2.999997 z"
       id="path97" />
    <path
       style="opacity:0.05;fill:#ffffff"
       d="m 84.999997,1010.3622 c 1.5,0 2,0.5 2,2 v 1 c 0,-1.5 -0.5,-2 -2,-2 h -0.999996 v -1 z"
       id="path99" />
  </g>
  <g
     id="hover-left"
     transform="translate(0,-1006.3622)">
    <path
       style="fill:url(#linearGradient2050)"
       d="m 46.999995,1013.3622 v 32 h 2 v -32 z"
       id="path102" />
    <path
       style="fill:currentColor;opacity:0.08"
       class="ColorScheme-Text"
       d="m 51.999992,1045.362 v -31.9998 h -2.999996 v 32 z"
       id="path104" />
  </g>
  <g
     id="hover-top"
     transform="translate(0,-1006.3622)">
    <path
       style="fill:url(#linearGradient7463)"
       d="M 84.000008,1009.3622 H 52.000006 v 1 h 32.000002 z"
       id="path107" />
    <path
       style="fill:currentColor;opacity:0.08"
       class="ColorScheme-Text"
       d="m 52.000106,1013.3622 h 31.999802 v -3 H 51.999906 Z"
       id="path109" />
    <path
       style="opacity:0.05;fill:#ffffff"
       d="m 52.000003,1010.3622 v 1 h 32.000002 v -1 z"
       id="path111" />
  </g>
  <g
     id="hover-right"
     transform="translate(0,-1006.3622)">
    <path
       style="fill:url(#linearGradient4531)"
       d="m 89.000005,1013.3622 v 32 h -2 v -32 z"
       id="path114" />
    <path
       style="fill:currentColor;opacity:0.08"
       class="ColorScheme-Text"
       d="m 84.000008,1045.362 v -31.9998 h 2.999996 v 32 z"
       id="path116" />
  </g>
  <g
     id="normal-right">
    <rect
       style="opacity:0.001"
       width="5"
       height="32"
       x="37"
       y="7"
       id="rect119" />
    <path
       style="fill:currentColor;opacity:0.08"
       class="ColorScheme-Text"
       d="M 37.000041,38.999763 V 6.99996 h 2.999978 v 32 z"
       id="path121" />
  </g>
  <g
     id="normal-bottomright">
    <rect
       style="opacity:0.001"
       width="5"
       height="4"
       x="37"
       y="39"
       id="rect124" />
    <path
       style="opacity:0.3;fill:url(#radialGradient5892)"
       d="m 40.000016,39 c 0,1.5 -0.520409,1.2534 -2,1.5 L 37.000038,41 v 1 1 c 2.158924,-0.3132 2.973272,-0.5985 2.999978,-2.5 v -1 z"
       id="path126" />
    <path
       style="fill:currentColor;opacity:0.08"
       class="ColorScheme-Text"
       d="m 37.000042,40.99996 h 0.999978 c 1.5,0 2,-0.5 2,-2 v 4.2e-5 h -2.999978 z"
       id="path128" />
  </g>
  <g
     id="normal-center">
    <path
       style="fill:currentColor;opacity:0.08"
       class="ColorScheme-Text"
       d="M 36.999993,39 V 7 H 4.9999929 v 32 z"
       id="path131" />
  </g>
  <g
     id="normal-left">
    <rect
       style="opacity:0.001"
       width="5"
       height="32"
       x="0"
       y="7"
       id="rect134" />
    <path
       style="fill:currentColor;opacity:0.08"
       class="ColorScheme-Text"
       d="M 4.999989,38.999763 V 6.99996 H 1.999993 v 32 z"
       id="path136" />
  </g>
  <g
     id="normal-bottom"
     transform="translate(0,-1007.3622)">
    <path
       style="opacity:0.3;fill:url(#radialGradient4309)"
       d="m 4.9999924,1048.3622 v 1 1 H 36.999992 v -1 -1 z"
       id="path139" />
    <g
       transform="translate(-48.000007,994.36216)"
       id="g143">
      <path
         style="fill:currentColor;opacity:0.08"
         class="ColorScheme-Text"
         d="M 84.999803,52.000042 H 53 V 54 h 32 z"
         id="path141" />
    </g>
  </g>
  <g
     id="normal-bottomleft">
    <rect
       style="opacity:0.001"
       width="5"
       height="4"
       x="0"
       y="39"
       id="rect146" />
    <path
       style="opacity:0.3;fill:url(#radialGradient5890)"
       d="m 1.9999925,39 v 0.5 1 c 0.5371433,2.5133 0.7102377,2.1184 2.9999964,2.5 V 42 41 L 3.9999925,40.5 c -1.34164,-0.6708 -2,0 -2,-1.5 z"
       id="path148" />
    <path
       style="fill:currentColor;opacity:0.08"
       class="ColorScheme-Text"
       d="M 4.9999889,40.99996 H 3.9999925 c -1.5,0 -2,-0.5 -2,-2 v 4.2e-5 h 2.9999964 z"
       id="path150" />
  </g>
  <g
     id="normal-top">
    <rect
       style="opacity:0.001"
       width="32"
       height="4"
       x="5"
       y="3"
       id="rect153" />
    <path
       style="fill:currentColor;opacity:0.08"
       class="ColorScheme-Text"
       d="m 5.000103,7 h 31.9998 V 3.99996 h -32 z"
       id="path155" />
    <path
       style="opacity:0.05;fill:#ffffff"
       d="M 4.9999999,4 V 5 H 37 V 4 Z"
       id="path157" />
  </g>
  <g
     id="pressed-left"
     class="ColorScheme-Highlight"
     style="fill:currentColor;">
    <rect
       style="opacity:0.001"
       width="5"
       height="32"
       x="138"
       y="7"
       id="rect160" />
    <path
       style="fill:currentColor;opacity:0.24"
       class="ColorScheme-Text"
       d="M 143,38.999763 V 6.99996 h -3 v 32 z"
       id="path162" />
  </g>
  <g
     id="pressed-bottom"
     class="ColorScheme-Highlight"
     style="fill:currentColor;">
    <rect
       style="opacity:0.001"
       width="32"
       height="4"
       x="143"
       y="39"
       id="rect165" />
    <path
       style="fill:currentColor;opacity:0.24"
       class="ColorScheme-Text"
       d="M 174.9998,39.000042 H 143 V 41 h 32 z"
       id="path167" />
  </g>
  <g
     id="pressed-top"
     class="ColorScheme-Highlight"
     style="fill:currentColor;">
    <rect
       style="opacity:0.001"
       width="32"
       height="4"
       x="143"
       y="3"
       id="rect170" />
    <path
       style="fill:currentColor;opacity:0.24"
       class="ColorScheme-Text"
       d="M 143.0002,7.00004 H 175 V 4 h -32 z"
       id="path172" />
  </g>
  <g
     id="normal-topleft">
    <rect
       style="opacity:0.001"
       width="5"
       height="4"
       x="0"
       y="3"
       id="rect175" />
    <path
       style="fill:currentColor;opacity:0.08"
       class="ColorScheme-Text"
       d="M 4.9999889,3.99996 H 3.9999925 c -1.5,0 -2,0.5 -2,2 V 7 h 2.9999964 z"
       id="path177" />
    <path
       style="opacity:0.05;fill:#ffffff"
       d="M 4,4 C 2.5,4 2,4.5 2,6 V 7 C 2,5.5 2.5,5 4,5 H 4.9999964 V 4 Z"
       id="path179" />
  </g>
  <g
     id="normal-topright">
    <rect
       style="opacity:0.001"
       width="5"
       height="4"
       x="37"
       y="3"
       id="rect182" />
    <path
       style="fill:currentColor;opacity:0.08"
       class="ColorScheme-Text"
       d="m 37.000042,3.99996 h 0.999978 c 1.5,0 2,0.5 2,2 V 7 h -2.999978 z"
       id="path184" />
    <path
       style="opacity:0.05;fill:#ffffff"
       d="m 37.999973,4 c 1.5,0 2,0.5 2,2 v 1 c 0,-1.5 -0.5,-2 -2,-2 H 36.999995 V 4 Z"
       id="path186" />
  </g>
  <g
     id="pressed-bottomleft"
     class="ColorScheme-Highlight"
     style="fill:currentColor;">
    <rect
       style="opacity:0.001"
       width="5"
       height="4"
       x="138"
       y="39"
       id="rect189" />
    <path
       style="fill:currentColor;opacity:0.24"
       class="ColorScheme-Text"
       d="m 143,41.000002 h -1 c -1.5,0 -2,-0.5 -2,-2 v 4.2e-5 h 3 z"
       id="path191" />
  </g>
  <g
     id="pressed-topleft"
     class="ColorScheme-Highlight"
     style="fill:currentColor;">
    <rect
       style="opacity:0.001"
       width="5"
       height="4"
       x="138"
       y="3"
       id="rect194" />
    <path
       style="fill:currentColor;opacity:0.24"
       class="ColorScheme-Text"
       d="m 143,3.99996 h -1 c -1.5,0 -2,0.5 -2,2 V 7 h 3 z"
       id="path196" />
  </g>
  <g
     id="pressed-right"
     class="ColorScheme-Highlight"
     style="fill:currentColor;">
    <rect
       style="opacity:0.001"
       width="5"
       height="32"
       x="175"
       y="7"
       id="rect199" />
    <path
       style="fill:currentColor;opacity:0.24"
       class="ColorScheme-Text"
       d="M 175,39 V 7.000197 h 3 v 32 z"
       id="path201" />
  </g>
  <g
     id="pressed-bottomright"
     class="ColorScheme-Highlight"
     style="fill:currentColor;">
    <rect
       style="opacity:0.001"
       width="5"
       height="4"
       x="175"
       y="39"
       id="rect204" />
    <g
       id="ff"
       transform="matrix(-1,0,0,1,179.9998,-13.000042)">
      <path
         style="fill:currentColor;opacity:0.24"
         class="ColorScheme-Text"
         d="M 5,54.000042 H 4 c -1.5,0 -2,-0.5 -2,-2 v 4.2e-5 h 3 z"
         id="path206" />
    </g>
  </g>
  <g
     id="pressed-topright"
     class="ColorScheme-Highlight"
     style="fill:currentColor;">
    <rect
       style="opacity:0.001"
       width="5"
       height="4"
       x="175"
       y="3"
       id="rect210" />
    <path
       style="fill:currentColor;opacity:0.24"
       class="ColorScheme-Text"
       d="m 175,4 h 1 c 1.5,0 2,0.5 2,2 v 1.00004 h -3 z"
       id="path212" />
  </g>
  <rect
     id="focus-hint-top-margin"
     style="fill:#ff00ff"
     width="2"
     height=".1"
     x="112"
     y="3.9" />
  <rect
     id="focus-hint-right-margin"
     style="fill:#ff00ff"
     width="2"
     height=".1"
     x="-22"
     y="132"
     transform="rotate(-90)" />
  <rect
     id="focus-hint-left-margin"
     style="fill:#ff00ff"
     width="2"
     height=".1"
     x="-22"
     y="93.9"
     transform="rotate(-90)" />
  <rect
     id="focus-hint-bottom-margin"
     style="fill:#ff00ff"
     width="2"
     height="3"
     x="112"
     y="41" />
  <rect
     id="hint-stretch-borders"
     style="fill:#ff00ff"
     width="2"
     height="2"
     x="0"
     y="-4"
     ry="0" />
  <rect
     id="hover-hint-top-margin"
     style="fill:#ff00ff"
     width="2"
     height=".1"
     x="67"
     y="3.9" />
  <rect
     id="hover-hint-right-margin"
     style="fill:#ff00ff"
     width="2"
     height=".1"
     x="-22"
     y="87"
     transform="rotate(-90)" />
  <rect
     id="hover-hint-left-margin"
     style="fill:#ff00ff"
     width="2"
     height=".1"
     x="-22"
     y="48.9"
     transform="rotate(-90)" />
  <g
     id="hover-bottom"
     transform="translate(0,-1006.3622)">
    <path
       style="fill:url(#linearGradient7337)"
       d="m 52,1052.3622 h 32.000002 v -5 H 52 Z"
       id="path223" />
    <path
       style="fill:currentColor;opacity:0.08"
       class="ColorScheme-Text"
       d="M 83.999801,1045.3622 H 51.999996 v 2 h 32.000002 z"
       id="path225" />
  </g>
  <g
     id="hover-bottomleft"
     transform="translate(0,-1006.3622)">
    <path
       style="opacity:0.6;fill:url(#radialGradient2009)"
       d="m 46.999992,1045.3622 v 7 h 5 v -5 h -1 c -1.5,0 -2,-0.5 -2,-2 z"
       id="path228" />
    <path
       style="fill:url(#radialGradient1987)"
       d="m 46.999992,1045.3622 v 7 h 5 v -5 h -1 c -1.5,0 -2,-0.5 -2,-2 z"
       id="path230" />
    <path
       style="fill:currentColor;opacity:0.08"
       class="ColorScheme-Text"
       d="m 51.999992,1047.3622 h -0.999996 c -1.500001,0 -2.000001,-0.5 -2.000001,-2 v 0 h 2.999997 z"
       id="path232" />
  </g>
  <g
     id="hover-topleft"
     transform="translate(0,-1006.3622)">
    <path
       style="fill:url(#radialGradient1933)"
       transform="translate(-7.629395e-6,1006.3622)"
       d="m 47,3 v 4 h 2 V 6 c 0,-1.4999999 0.5,-2 2,-2 h 1 V 3 Z"
       id="path235" />
    <path
       style="fill:url(#radialGradient1562)"
       transform="translate(-7.629395e-6,1006.3622)"
       d="m 47,3 v 4 h 2 V 6 c 0,-1.4999999 0.5,-2 2,-2 h 1 V 3 Z"
       id="path237" />
    <path
       style="fill:currentColor;opacity:0.08"
       class="ColorScheme-Text"
       d="m 51.999992,1010.3622 h -0.999996 c -1.500001,0 -2.000001,0.5 -2.000001,2 v 1 h 2.999997 z"
       id="path239" />
    <path
       style="opacity:0.05;fill:#ffffff"
       d="m 51.000003,1010.3622 c -1.5,0 -2,0.5 -2,2 v 1 c 0,-1.5 0.5,-2 2,-2 h 0.999996 v -1 z"
       id="path241" />
  </g>
  <g
     id="hover-bottomright"
     transform="translate(0,-1006.3622)">
    <path
       style="opacity:0.6;fill:url(#radialGradient4525)"
       d="m 89.00001,1045.3622 v 7 h -5 v -5 h 1 c 1.5,0 2,-0.5 2,-2 z"
       id="path244" />
    <path
       style="fill:url(#radialGradient4527)"
       d="m 89.00001,1045.3622 v 7 h -5 v -5 h 1 c 1.5,0 2,-0.5 2,-2 z"
       id="path246" />
    <path
       style="fill:currentColor;opacity:0.08"
       class="ColorScheme-Text"
       d="m 84.000008,1047.3622 h 0.999996 c 1.500001,0 2.000001,-0.5 2.000001,-2 v 0 h -2.999997 z"
       id="path248" />
  </g>
  <g
     id="hover-topright"
     transform="translate(0,-1006.3622)">
    <path
       style="fill:url(#radialGradient4533)"
       transform="translate(-7.629395e-6,1006.3622)"
       d="m 84,3 v 1 h 1 c 1.5,0 2,0.5000001 2,2 v 1 h 2 V 3 Z"
       id="path251" />
    <path
       style="fill:url(#radialGradient4529)"
       transform="translate(-7.629395e-6,1006.3622)"
       d="m 84,3 v 1 h 1 c 1.5,0 2,0.5000001 2,2 v 1 h 2 V 3 Z"
       id="path253" />
    <path
       style="fill:currentColor;opacity:0.08"
       class="ColorScheme-Text"
       d="m 84.000008,1010.3622 h 0.999996 c 1.500001,0 2.000001,0.5 2.000001,2 v 1 h -2.999997 z"
       id="path255" />
    <path
       style="opacity:0.05;fill:#ffffff"
       d="m 84.999997,1010.3622 c 1.5,0 2,0.5 2,2 v 1 c 0,-1.5 -0.5,-2 -2,-2 h -0.999996 v -1 z"
       id="path257" />
  </g>
  <rect
     id="hover-hint-bottom-margin"
     style="fill:#ff00ff"
     width="2"
     height="3"
     x="67"
     y="41" />
  <rect
     id="normal-hint-top-margin"
     style="fill:#ff00ff"
     width="2"
     height="4"
     x="19"
     y="3" />
  <rect
     id="normal-hint-right-margin"
     style="fill:#ff00ff"
     width="2"
     height="5"
     x="-22"
     y="37"
     transform="rotate(-90)" />
  <rect
     id="normal-hint-left-margin"
     style="fill:#ff00ff"
     width="2"
     height="5"
     x="-22"
     y="0"
     transform="rotate(-90)" />
  <rect
     id="normal-hint-bottom-margin"
     style="fill:#ff00ff"
     width="2"
     height="4"
     x="19"
     y="39" />
  <rect
     id="pressed-hint-top-margin"
     style="fill:#ff00ff"
     width="2"
     height="4"
     x="158"
     y="3" />
  <rect
     id="pressed-hint-right-margin"
     style="fill:#ff00ff"
     width="2"
     height="5"
     x="-22"
     y="175"
     transform="rotate(-90)" />
  <rect
     id="pressed-hint-left-margin"
     style="fill:#ff00ff"
     width="2"
     height="5"
     x="-22"
     y="138"
     transform="rotate(-90)" />
  <rect
     id="pressed-hint-bottom-margin"
     style="fill:#ff00ff"
     width="2"
     height="4"
     x="158"
     y="39" />
  <path
     id="toolbutton-hover-center"
     style="opacity:0.1;fill:currentColor"
     class="ColorScheme-Text"
     d="m 206,38.00004 v -16 h -16 v 16 z" />
  <g
     id="toolbutton-hover-left"
     transform="matrix(1,0,0,0.50000306,2,3.9999497)">
    <path
       style="opacity:0.1;fill:currentColor"
       class="ColorScheme-Text"
       d="M 188,67.999763 V 35.99996 h -3 v 32 z"
       id="path270" />
  </g>
  <g
     id="toolbutton-hover-top"
     transform="matrix(0.5,0,0,1,95.99992,-14)">
    <path
       style="opacity:0.1;fill:currentColor"
       class="ColorScheme-Text"
       d="M 188.0002,36.00004 H 220 V 33 h -32 z"
       id="path273" />
  </g>
  <g
     id="toolbutton-hover-topleft"
     transform="translate(2,-14)">
    <path
       style="opacity:0.1;fill:currentColor"
       class="ColorScheme-Text"
       d="m 188,32.99996 c -2,0 -2.9921,2.00004 -3,3.00004 h 3 z"
       id="path276" />
  </g>
  <g
     id="toolbutton-hover-right"
     transform="matrix(1,0,0,0.5,-14,3.9999419)">
    <path
       style="opacity:0.1;fill:currentColor"
       class="ColorScheme-Text"
       d="M 220,68 V 36.000197 h 3 v 32 z"
       id="path279" />
  </g>
  <g
     id="toolbutton-hover-topright"
     transform="translate(-14.00008,-14)">
    <path
       style="opacity:0.1;fill:currentColor"
       class="ColorScheme-Text"
       d="m 220,33 c 2.00008,0 3.00008,2 3,3.00004 h -3 z"
       id="path282" />
  </g>
  <g
     id="toolbutton-hover-bottom"
     transform="matrix(0.5,0,0,1,96,-29.99996)">
    <path
       style="opacity:0.1;fill:currentColor"
       class="ColorScheme-Text"
       d="M 188.0002,67.99992 H 220 v 3.00004 h -32 z"
       id="path285" />
  </g>
  <g
     id="toolbutton-hover-bottomleft"
     transform="translate(2,-29.99996)">
    <path
       style="opacity:0.1;fill:currentColor"
       class="ColorScheme-Text"
       d="m 188,71 c -2,-4e-5 -3,-2.00004 -3,-3.00004 h 3 z"
       id="path288" />
  </g>
  <g
     id="toolbutton-hover-bottomright"
     transform="translate(-14,-29.99988)">
    <path
       style="opacity:0.1;fill:currentColor"
       class="ColorScheme-Text"
       d="m 220,70.99996 c 2,-8e-5 3,-2.00008 3,-3.00004 h -3 z"
       id="path291" />
  </g>
  <path
     id="toolbutton-pressed-center"
     style="opacity:0.2;fill:currentColor"
     class="ColorScheme-Text"
     d="M 231,38 V 22 h -16 v 16 z" />
  <g
     id="toolbutton-pressed-left"
     transform="matrix(1,0,0,0.5,27,3.99998)">
    <path
       style="opacity:0.2;fill:currentColor"
       class="ColorScheme-Text"
       d="M 188,67.999763 V 35.99996 h -3 v 32 z"
       id="path295" />
  </g>
  <g
     id="toolbutton-pressed-top"
     transform="matrix(0.5,0,0,1,120.9999,-14.00008)">
    <path
       style="opacity:0.2;fill:currentColor"
       class="ColorScheme-Text"
       d="M 188.0002,36.00004 H 220 V 33 h -32 z"
       id="path298" />
  </g>
  <g
     id="toolbutton-pressed-topleft"
     transform="translate(27,-14.00004)">
    <path
       style="opacity:0.2;fill:currentColor"
       class="ColorScheme-Text"
       d="m 188,32.99996 c -2,8e-5 -3,2.00008 -3,3.00004 h 3 z"
       id="path301" />
  </g>
  <g
     id="toolbutton-pressed-right"
     transform="matrix(1,0,0,0.5,11,3.99992)">
    <path
       style="opacity:0.2;fill:currentColor"
       class="ColorScheme-Text"
       d="M 220,68 V 36.000197 h 3 v 32 z"
       id="path304" />
  </g>
  <g
     id="toolbutton-pressed-topright"
     transform="translate(10.9999,-14.00008)">
    <path
       style="opacity:0.2;fill:currentColor"
       class="ColorScheme-Text"
       d="m 220,33 c 2.0001,8e-5 3.0001,2.00008 3,3.00004 h -3 z"
       id="path307" />
  </g>
  <g
     id="toolbutton-pressed-bottom"
     transform="matrix(0.5,0,0,1,121,-30)">
    <path
       style="opacity:0.2;fill:currentColor"
       class="ColorScheme-Text"
       d="M 188.0002,67.99992 H 220 v 3.00004 h -32 z"
       id="path310" />
  </g>
  <g
     id="toolbutton-pressed-bottomleft"
     transform="translate(27,-30)">
    <path
       style="opacity:0.2;fill:currentColor"
       class="ColorScheme-Text"
       d="m 188,71 c -2,0 -3,-2 -3,-3.00004 h 3 z"
       id="path313" />
  </g>
  <g
     id="toolbutton-pressed-bottomright"
     transform="translate(11,-30)">
    <path
       style="opacity:0.2;fill:currentColor"
       class="ColorScheme-Text"
       d="M 220,70.99996 C 222,71 223,69 223,67.99992 h -3 z"
       id="path316" />
  </g>
  <rect
     id="toolbutton-hover-hint-left-margin"
     style="fill:#ff00ff"
     width="2"
     height="4"
     x="-31"
     y="187"
     transform="rotate(-90)" />
  <rect
     id="toolbutton-hover-hint-top-margin"
     style="fill:#ff00ff"
     width="2"
     height="4"
     x="-199"
     y="19"
     transform="scale(-1,1)" />
  <rect
     id="toolbutton-hover-hint-right-margin"
     style="fill:#ff00ff"
     width="2"
     height="4"
     x="-31"
     y="205"
     transform="rotate(-90)" />
  <rect
     id="toolbutton-hover-hint-bottom-margin"
     style="fill:#ff00ff"
     width="2"
     height="4"
     x="197"
     y="37" />
  <rect
     id="toolbutton-pressed-hint-left-margin"
     style="fill:#ff00ff"
     width="2"
     height="4"
     x="-31"
     y="212"
     transform="rotate(-90)" />
  <rect
     id="toolbutton-pressed-hint-top-margin"
     style="fill:#ff00ff"
     width="2"
     height="4"
     x="222"
     y="19" />
  <rect
     id="toolbutton-pressed-hint-right-margin"
     style="fill:#ff00ff"
     width="2"
     height="4"
     x="-31"
     y="230"
     transform="rotate(-90)" />
  <rect
     id="toolbutton-pressed-hint-bottom-margin"
     style="fill:#ff00ff"
     width="2"
     height="4"
     x="222"
     y="37" />
  <g
     id="pressed-center"
     transform="translate(4.49891,-44.858532)"
     class="ColorScheme-Highlight"
     style="fill:currentColor;">
    <path
       style="opacity:0.24;fill:currentColor"
       class="ColorScheme-Text"
       d="m 170.50129,83.858572 v -32 h -32 v 32 z"
       id="path327" />
  </g>
  <g
     id="focus-center"
     transform="translate(-41.501292,-44.858572)">
    <path
       style="opacity:0.08;fill:currentColor"
       class="ColorScheme-Text"
       d="m 170.50129,83.858572 v -32 h -32 v 32 z"
       id="path330" />
  </g>
  <g
     id="hover-center"
     transform="translate(-86.501184,-44.858572)">
    <path
       style="opacity:0.08;fill:currentColor"
       class="ColorScheme-Text"
       d="m 170.50129,83.858572 v -32 h -32 v 32 z"
       id="path333" />
  </g>
</svg>
