<?xml version="1.0" encoding="UTF-8" standalone="no"?>
<svg
   width="24"
   height="24"
   version="1.1"
   id="svg31"
   sodipodi:docname="keepbelow.svg"
   inkscape:version="1.2-alpha1 (b6a15bb, 2022-02-23)"
   xmlns:inkscape="http://www.inkscape.org/namespaces/inkscape"
   xmlns:sodipodi="http://sodipodi.sourceforge.net/DTD/sodipodi-0.dtd"
   xmlns="http://www.w3.org/2000/svg"
   xmlns:svg="http://www.w3.org/2000/svg">
  <defs
     id="defs35" />
  <sodipodi:namedview
     id="namedview33"
     pagecolor="#ffffff"
     bordercolor="#666666"
     borderopacity="1.0"
     inkscape:pageshadow="2"
     inkscape:pageopacity="0.0"
     inkscape:pagecheckerboard="0"
     inkscape:deskcolor="#d1d1d1"
     showgrid="false"
     inkscape:zoom="4.9166667"
     inkscape:cx="42"
     inkscape:cy="22.474576"
     inkscape:window-width="1600"
     inkscape:window-height="838"
     inkscape:window-x="0"
     inkscape:window-y="34"
     inkscape:window-maximized="1"
     inkscape:current-layer="svg31" />
  <g
     id="active-center"
     transform="scale(1.0909091)">
    <rect
       style="opacity:0.001"
       width="22"
       height="22"
       x="0"
       y="0"
       id="rect2" />
    <path
       id="path4"
       style="fill:#dfdfdf"
       d="M 6.4166666,15.071289 V 13.40625 h 9.1666664 v 1.665039 z M 11,12.428711 l -4.5833334,-5.5 h 9.1666664 z" />
  </g>
  <g
     id="hover-center"
     transform="matrix(1.0909091,0,0,1.0909091,-1.0909091,0)">
    <rect
       style="opacity:0.001"
       width="22"
       height="22"
       x="23"
       y="0"
       id="rect7" />
    <circle
       style="opacity:0.08;fill:#ffffff"
       cx="34"
       cy="11"
       r="11"
       id="circle9" />
    <path
       id="path7335"
       style="fill:#dfdfdf"
       d="M 29.416667,15.268229 V 13.60319 h 9.166666 v 1.665039 z M 34,12.625651 l -4.583333,-5.5 h 9.166666 z" />
  </g>
  <g
     id="pressed-center"
     transform="matrix(1.0909091,0,0,1.0909091,-2.1818182,0)">
    <rect
       style="opacity:0.001"
       width="22"
       height="22"
       x="46"
       y="0"
       id="rect14" />
    <circle
       style="opacity:0.19;fill:#ffffff"
       cx="57"
       cy="11"
       r="11"
       id="circle16" />
    <path
       id="path7337"
       style="fill:#dfdfdf"
       d="M 52.416667,15.268229 V 13.60319 h 9.166666 v 1.665039 z M 57,12.625651 l -4.583333,-5.5 h 9.166666 z" />
  </g>
  <g
     id="inactive-center"
     transform="matrix(1.0909091,0,0,1.0909091,-3.2727273,0)">
    <rect
       style="opacity:0.001"
       width="22"
       height="22"
       x="69"
       y="0"
       id="rect21" />
    <path
       id="path7339"
       style="fill:#dfdfdf"
       d="M 75.416667,15.268229 V 13.60319 h 9.166666 v 1.665039 z M 80,12.625651 l -4.583333,-5.5 h 9.166666 z" />
  </g>
  <g
     id="deactivated-center"
     transform="matrix(1.0909091,0,0,1.0909091,-4.3636364,0)">
    <rect
       style="opacity:0.001"
       width="22"
       height="22"
       x="92"
       y="0"
       id="rect26" />
    <path
       id="path7341"
       style="fill:#dfdfdf"
       d="M 98.416667,15.268229 V 13.60319 h 9.166663 v 1.665039 z M 103,12.625651 l -4.583333,-5.5 h 9.166663 z" />
  </g>
</svg>
